<svg version="1.1" id="Layer_1" xmlns="http://www.w3.org/2000/svg" xmlns:xlink="http://www.w3.org/1999/xlink" x="0px" y="0px"
	 width="100%" viewBox="0 0 2500 1125" enable-background="new 0 0 2500 1125" xml:space="preserve">
<path fill="#FFFFFF" opacity="1.000000" stroke="none" 
	d="
M2501.000000,780.000000 
	C2501.000000,895.326538 2501.000000,1010.653076 2501.000000,1125.984619 
	C1667.722534,1125.989746 834.445190,1125.989746 1.083884,1125.989746 
	C1.083884,751.078064 1.083884,376.156067 1.083884,1.117043 
	C834.333313,1.117043 1667.666626,1.117043 2501.000000,1.117777 
	C2501.000000,116.111740 2501.000000,231.104980 2500.697754,346.563599 
	C2500.195557,347.056091 2499.995605,347.083221 2499.339844,347.117188 
	C2497.718018,347.128052 2496.551758,347.135651 2495.385498,347.135651 
	C1751.269775,347.136047 1007.154053,347.135956 263.038361,347.135864 
	C261.228485,347.135864 259.418579,347.135864 257.634552,347.135864 
	C258.072723,348.800812 258.733734,350.318176 258.838287,351.872925 
	C259.469849,361.267761 260.011200,370.669250 260.507874,380.072449 
	C260.831604,386.201752 260.763397,392.365021 261.389587,398.459747 
	C261.723785,401.712646 261.472809,405.223206 266.171234,406.930969 
	C278.457611,411.396851 290.421875,416.742249 302.622375,421.457977 
	C304.434174,422.158234 307.485077,422.171814 308.841217,421.093140 
	C314.527222,416.570496 319.762115,411.483826 325.208038,406.655396 
	C332.620575,400.083282 339.919312,393.363373 347.652740,387.190247 
	C349.069794,386.059113 353.291229,386.238220 354.587341,387.494751 
	C369.775940,402.219482 384.663025,417.255585 399.600403,432.238678 
	C401.765656,434.410522 402.061646,436.828339 399.904480,439.236847 
	C397.141357,442.321777 394.339020,445.371582 391.552948,448.435944 
	C382.871216,457.984924 374.111450,467.465607 365.614532,477.176270 
	C364.649292,478.279388 364.497223,480.938507 365.090973,482.428711 
	C370.194824,495.238312 375.493195,507.972412 380.936035,520.642029 
	C381.512939,521.984924 383.338654,523.604065 384.671387,523.685791 
	C400.847870,524.677185 417.037537,525.476013 433.230652,526.161499 
	C439.205719,526.414368 440.381927,527.401123 440.384430,533.547852 
	C440.392365,553.046509 440.387665,572.545166 440.387299,592.043823 
	C440.387146,599.548401 439.385681,600.572266 431.962830,600.803528 
	C423.674713,601.061707 415.382507,601.249634 407.101501,601.658630 
	C399.355255,602.041138 391.607147,602.534546 383.895386,603.325623 
	C382.545074,603.464172 380.776062,605.063171 380.207062,606.412170 
	C374.982727,618.798889 370.103271,631.331848 364.811096,643.688416 
	C363.737305,646.195618 363.629028,647.896606 365.417114,649.861877 
	C376.438721,661.975708 387.323059,674.216980 398.496460,686.188599 
	C401.755798,689.680725 401.340149,692.655212 398.568237,695.690979 
	C396.576263,697.872559 394.008972,699.517761 391.904358,701.609558 
	C379.496429,713.941956 367.122101,726.308533 354.803864,738.730469 
	C352.358154,741.196716 349.938293,742.127563 347.096741,739.616455 
	C334.587341,728.562195 322.063538,717.523499 309.650299,706.362061 
	C307.283325,704.233704 305.367554,703.435730 302.257477,705.140320 
	C290.565704,711.548279 278.404327,716.834595 265.429810,720.233765 
	C263.707214,720.685059 261.589935,723.604004 261.457642,725.505554 
	C260.606720,737.739136 260.349091,750.012451 259.704285,762.262573 
	C259.396973,768.100830 258.666718,773.916870 258.116821,779.864075 
	C259.173950,779.864075 260.810181,779.864075 262.446411,779.864075 
	C1005.395508,779.864197 1748.344604,779.864197 2491.293701,779.865417 
	C2494.126709,779.865417 2496.959961,779.882446 2500.093506,779.931763 
	C2500.595947,779.981384 2500.798096,779.990662 2501.000000,780.000000 
M120.915855,717.352783 
	C112.555405,724.851990 104.315498,732.495544 95.701157,739.690735 
	C94.446228,740.738953 90.531120,740.560791 89.320045,739.405701 
	C74.162605,724.948303 59.170891,710.310242 44.485691,695.375305 
	C43.016926,693.881653 42.791962,689.616333 43.826847,687.563477 
	C45.479446,684.285217 48.659508,681.771179 51.219204,678.957153 
	C60.120377,669.171509 69.020950,659.385254 77.949982,649.625122 
	C79.795647,647.607666 79.266510,645.930115 78.235245,643.527466 
	C73.004791,631.341614 68.212578,618.968262 63.071674,606.742676 
	C62.468891,605.309204 60.844215,603.800415 59.378090,603.348083 
	C56.910206,602.586731 54.195900,602.495728 51.574078,602.383362 
	C38.175289,601.808533 24.768963,601.396973 11.375024,600.731873 
	C8.575898,600.592896 5.817874,599.626221 3.107097,599.054932 
	C3.107097,659.097168 3.107097,719.318726 3.107097,779.703796 
	C64.106567,779.703796 124.832672,779.703796 185.570114,779.703796 
	C185.145004,778.483459 184.425598,777.305603 184.358612,776.091797 
	C183.483475,760.230286 182.407990,744.370300 182.052719,728.494934 
	C181.927734,722.909485 179.446259,720.848145 174.769775,719.063782 
	C163.461609,714.748901 152.300369,710.032532 141.196442,705.209656 
	C138.253006,703.931213 136.186111,703.798889 133.740387,706.139771 
	C129.814728,709.897217 125.560043,713.310913 120.915855,717.352783 
M120.500046,347.134338 
	C81.404800,347.134338 42.309559,347.134338 3.024694,347.134338 
	C3.024694,407.798370 3.024694,468.004272 3.024694,528.149231 
	C4.816638,527.460449 6.435238,526.363770 8.111126,526.267822 
	C24.111208,525.351868 40.115704,524.441406 56.131695,523.925476 
	C60.119507,523.797058 61.866360,522.485291 63.323513,518.818481 
	C68.101738,506.794434 73.443909,494.995300 78.316528,483.006958 
	C78.951401,481.444916 78.840775,478.641815 77.838249,477.496674 
	C67.283417,465.440338 56.547714,453.539337 45.705132,441.739502 
	C41.357761,437.008301 41.154167,434.569092 45.716412,430.096283 
	C59.961433,416.130432 74.259651,402.218567 88.448280,388.195740 
	C91.197845,385.478333 93.503731,385.121185 96.514473,387.808228 
	C108.586746,398.582611 120.856766,409.136871 132.846756,420.000854 
	C135.441833,422.352173 137.472809,422.933167 140.742752,421.550568 
	C152.811844,416.447571 164.953171,411.504272 177.178009,406.787720 
	C180.697296,405.429962 181.846832,403.381897 181.956436,399.797241 
	C182.361176,386.558136 182.934341,373.322357 183.624420,360.094727 
	C183.849808,355.774628 184.624817,351.483215 185.153839,347.134338 
	C164.140305,347.134338 142.820190,347.134338 120.500046,347.134338 
M281.239838,523.264832 
	C263.089264,495.997070 225.033447,483.406158 193.419052,497.719910 
	C163.972885,511.051971 148.924286,534.144714 149.159332,566.334045 
	C149.272171,581.787659 154.920868,595.857727 164.997849,607.982178 
	C179.181290,625.047302 197.317215,634.174194 219.370667,635.119202 
	C234.031281,635.747498 247.645706,631.708069 260.042542,623.826721 
	C281.868958,609.950500 293.079590,589.773071 294.019775,564.191772 
	C294.557892,549.549988 290.091034,535.975647 281.239838,523.264832 
z"/>
<path fill="#FDFDFD" opacity="1.000000" stroke="none" 
	d="
M2501.000000,631.000000 
	C2501.000000,637.354431 2501.000000,643.708801 2500.708984,650.531860 
	C2500.226318,651.028748 2500.034424,651.056946 2499.519287,651.295898 
	C2498.632812,654.418335 2498.398438,657.441833 2497.452881,660.223511 
	C2491.259277,678.437622 2477.685547,689.777771 2461.143066,697.932068 
	C2441.854004,707.440186 2421.025635,711.513855 2399.770752,711.948120 
	C2382.595215,712.299011 2365.262939,711.577454 2348.208740,709.564819 
	C2327.170166,707.082031 2307.377686,700.459412 2290.476074,686.656738 
	C2272.557861,672.023926 2265.641846,652.938904 2265.769287,630.411255 
	C2293.656494,630.411255 2321.192871,630.411255 2348.711426,630.411255 
	C2349.231201,642.725403 2352.618164,645.999084 2365.070068,646.592712 
	C2365.895996,646.632080 2366.720459,646.839417 2367.542236,646.820251 
	C2381.751709,646.487915 2395.979004,646.444336 2410.161133,645.624329 
	C2415.646973,645.307251 2419.024414,641.141846 2418.853271,637.264526 
	C2418.677979,633.296082 2415.069336,629.867371 2409.760986,629.176208 
	C2402.256348,628.199158 2394.703369,627.602356 2387.189453,626.690247 
	C2375.488525,625.270142 2363.793945,623.788330 2352.113281,622.210815 
	C2337.676270,620.260986 2323.110596,618.895691 2308.869141,615.970337 
	C2294.049805,612.926392 2280.909424,605.939697 2271.692871,593.366516 
	C2251.164795,565.362000 2257.813232,520.310852 2294.366211,501.030579 
	C2315.362793,489.955811 2337.927002,485.762848 2361.175537,485.060608 
	C2376.044922,484.611481 2391.024658,485.354736 2405.855713,486.677734 
	C2428.705078,488.716003 2450.342041,494.604065 2468.572998,509.718079 
	C2486.847168,524.867859 2493.129150,544.643616 2492.191406,567.621216 
	C2464.331543,567.621216 2436.930176,567.621216 2409.539795,567.621216 
	C2409.211426,556.999023 2406.874756,552.115662 2392.710938,550.590393 
	C2388.277832,550.112976 2383.797119,549.658752 2379.354004,549.777588 
	C2369.541992,550.039917 2359.678955,550.168457 2349.955811,551.338745 
	C2343.838623,552.075012 2342.550781,555.008789 2342.758545,561.099182 
	C2342.961914,567.064331 2347.880615,567.725647 2351.718750,568.607544 
	C2357.928955,570.034546 2364.382080,570.419861 2370.739502,571.187866 
	C2385.377197,572.956116 2399.996582,574.914001 2414.665283,576.377136 
	C2430.528076,577.959351 2446.138184,580.714355 2461.144531,586.079468 
	C2474.319336,590.789795 2486.031738,598.100525 2492.924561,610.679626 
	C2496.289795,616.821167 2497.563965,624.108459 2500.086182,630.929810 
	C2500.592041,630.988342 2500.796143,630.994202 2501.000000,631.000000 
z"/>
<path fill="#E0E0E0" opacity="1.000000" stroke="none" 
	d="
M2501.000000,630.531372 
	C2500.796143,630.994202 2500.592041,630.988342 2500.128418,630.470581 
	C2499.912354,627.127563 2499.994141,624.296509 2499.994385,621.465393 
	C2500.000977,531.675598 2500.000732,441.885773 2499.990723,352.095978 
	C2499.990723,350.434113 2499.863281,348.772247 2499.795410,347.110382 
	C2499.995605,347.083221 2500.195557,347.056091 2500.697754,347.014496 
	C2501.000000,441.354218 2501.000000,535.708435 2501.000000,630.531372 
z"/>
<path fill="#E0E0E0" opacity="1.000000" stroke="none" 
	d="
M2499.842529,651.085083 
	C2500.034424,651.056946 2500.226318,651.028748 2500.708984,651.000244 
	C2501.000000,693.687561 2501.000000,736.375122 2501.000000,779.531372 
	C2500.798096,779.990662 2500.595947,779.981384 2500.162109,779.474365 
	C2499.901123,736.346191 2499.871826,693.715637 2499.842529,651.085083 
z"/>
<path fill="#010101" opacity="1.000000" stroke="none" 
	d="
M2499.519287,651.295898 
	C2499.871826,693.715637 2499.901123,736.346191 2499.861816,779.434082 
	C2496.959961,779.882446 2494.126709,779.865417 2491.293701,779.865417 
	C1748.344604,779.864197 1005.395508,779.864197 262.446411,779.864075 
	C260.810181,779.864075 259.173950,779.864075 258.116821,779.864075 
	C258.666718,773.916870 259.396973,768.100830 259.704285,762.262573 
	C260.349091,750.012451 260.606720,737.739136 261.457642,725.505554 
	C261.589935,723.604004 263.707214,720.685059 265.429810,720.233765 
	C278.404327,716.834595 290.565704,711.548279 302.257477,705.140320 
	C305.367554,703.435730 307.283325,704.233704 309.650299,706.362061 
	C322.063538,717.523499 334.587341,728.562195 347.096741,739.616455 
	C349.938293,742.127563 352.358154,741.196716 354.803864,738.730469 
	C367.122101,726.308533 379.496429,713.941956 391.904358,701.609558 
	C394.008972,699.517761 396.576263,697.872559 398.568237,695.690979 
	C401.340149,692.655212 401.755798,689.680725 398.496460,686.188599 
	C387.323059,674.216980 376.438721,661.975708 365.417114,649.861877 
	C363.629028,647.896606 363.737305,646.195618 364.811096,643.688416 
	C370.103271,631.331848 374.982727,618.798889 380.207062,606.412170 
	C380.776062,605.063171 382.545074,603.464172 383.895386,603.325623 
	C391.607147,602.534546 399.355255,602.041138 407.101501,601.658630 
	C415.382507,601.249634 423.674713,601.061707 431.962830,600.803528 
	C439.385681,600.572266 440.387146,599.548401 440.387299,592.043823 
	C440.387665,572.545166 440.392365,553.046509 440.384430,533.547852 
	C440.381927,527.401123 439.205719,526.414368 433.230652,526.161499 
	C417.037537,525.476013 400.847870,524.677185 384.671387,523.685791 
	C383.338654,523.604065 381.512939,521.984924 380.936035,520.642029 
	C375.493195,507.972412 370.194824,495.238312 365.090973,482.428711 
	C364.497223,480.938507 364.649292,478.279388 365.614532,477.176270 
	C374.111450,467.465607 382.871216,457.984924 391.552948,448.435944 
	C394.339020,445.371582 397.141357,442.321777 399.904480,439.236847 
	C402.061646,436.828339 401.765656,434.410522 399.600403,432.238678 
	C384.663025,417.255585 369.775940,402.219482 354.587341,387.494751 
	C353.291229,386.238220 349.069794,386.059113 347.652740,387.190247 
	C339.919312,393.363373 332.620575,400.083282 325.208038,406.655396 
	C319.762115,411.483826 314.527222,416.570496 308.841217,421.093140 
	C307.485077,422.171814 304.434174,422.158234 302.622375,421.457977 
	C290.421875,416.742249 278.457611,411.396851 266.171234,406.930969 
	C261.472809,405.223206 261.723785,401.712646 261.389587,398.459747 
	C260.763397,392.365021 260.831604,386.201752 260.507874,380.072449 
	C260.011200,370.669250 259.469849,361.267761 258.838287,351.872925 
	C258.733734,350.318176 258.072723,348.800812 257.634552,347.135864 
	C259.418579,347.135864 261.228485,347.135864 263.038361,347.135864 
	C1007.154053,347.135956 1751.269775,347.136047 2495.385498,347.135651 
	C2496.551758,347.135651 2497.718018,347.128052 2499.339844,347.117188 
	C2499.863281,348.772247 2499.990723,350.434113 2499.990723,352.095978 
	C2500.000732,441.885773 2500.000977,531.675598 2499.994385,621.465393 
	C2499.994141,624.296509 2499.912354,627.127563 2499.826660,630.417908 
	C2497.563965,624.108459 2496.289795,616.821167 2492.924561,610.679626 
	C2486.031738,598.100525 2474.319336,590.789795 2461.144531,586.079468 
	C2446.138184,580.714355 2430.528076,577.959351 2414.665283,576.377136 
	C2399.996582,574.914001 2385.377197,572.956116 2370.739502,571.187866 
	C2364.382080,570.419861 2357.928955,570.034546 2351.718750,568.607544 
	C2347.880615,567.725647 2342.961914,567.064331 2342.758545,561.099182 
	C2342.550781,555.008789 2343.838623,552.075012 2349.955811,551.338745 
	C2359.678955,550.168457 2369.541992,550.039917 2379.354004,549.777588 
	C2383.797119,549.658752 2388.277832,550.112976 2392.710938,550.590393 
	C2406.874756,552.115662 2409.211426,556.999023 2409.539795,567.621216 
	C2436.930176,567.621216 2464.331543,567.621216 2492.191406,567.621216 
	C2493.129150,544.643616 2486.847168,524.867859 2468.572998,509.718079 
	C2450.342041,494.604065 2428.705078,488.716003 2405.855713,486.677734 
	C2391.024658,485.354736 2376.044922,484.611481 2361.175537,485.060608 
	C2337.927002,485.762848 2315.362793,489.955811 2294.366211,501.030579 
	C2257.813232,520.310852 2251.164795,565.362000 2271.692871,593.366516 
	C2280.909424,605.939697 2294.049805,612.926392 2308.869141,615.970337 
	C2323.110596,618.895691 2337.676270,620.260986 2352.113281,622.210815 
	C2363.793945,623.788330 2375.488525,625.270142 2387.189453,626.690247 
	C2394.703369,627.602356 2402.256348,628.199158 2409.760986,629.176208 
	C2415.069336,629.867371 2418.677979,633.296082 2418.853271,637.264526 
	C2419.024414,641.141846 2415.646973,645.307251 2410.161133,645.624329 
	C2395.979004,646.444336 2381.751709,646.487915 2367.542236,646.820251 
	C2366.720459,646.839417 2365.895996,646.632080 2365.070068,646.592712 
	C2352.618164,645.999084 2349.231201,642.725403 2348.711426,630.411255 
	C2321.192871,630.411255 2293.656494,630.411255 2265.769287,630.411255 
	C2265.641846,652.938904 2272.557861,672.023926 2290.476074,686.656738 
	C2307.377686,700.459412 2327.170166,707.082031 2348.208740,709.564819 
	C2365.262939,711.577454 2382.595215,712.299011 2399.770752,711.948120 
	C2421.025635,711.513855 2441.854004,707.440186 2461.143066,697.932068 
	C2477.685547,689.777771 2491.259277,678.437622 2497.452881,660.223511 
	C2498.398438,657.441833 2498.632812,654.418335 2499.519287,651.295898 
M1406.006714,700.479797 
	C1425.635864,693.884827 1440.534668,681.861877 1448.014893,662.190674 
	C1450.777222,654.926147 1452.330322,647.080872 1453.496460,639.358765 
	C1455.211304,628.002502 1454.959717,616.500549 1451.453613,605.470459 
	C1443.943848,581.844849 1426.297119,569.037781 1403.425903,562.878662 
	C1391.986206,559.797974 1380.093384,558.399902 1367.106812,556.000854 
	C1368.656372,555.160522 1369.675293,554.247131 1370.819946,554.044800 
	C1379.354980,552.535950 1388.137329,551.949036 1396.420410,549.591553 
	C1413.164185,544.826050 1426.813110,535.812256 1434.573242,519.239014 
	C1440.714966,506.122284 1441.323242,492.287689 1440.215454,478.459900 
	C1438.727417,459.888977 1430.762695,444.404327 1414.866821,433.695190 
	C1397.485352,421.985138 1377.646484,417.628326 1357.382812,417.428467 
	C1292.894897,416.792450 1228.396851,417.192841 1163.902710,417.192780 
	C1162.268188,417.192780 1160.633667,417.192780 1158.696533,417.192780 
	C1158.696533,514.248535 1158.696533,610.974243 1158.696533,707.635315 
	C1159.257202,707.791687 1159.571533,707.957031 1159.885132,707.955688 
	C1231.310181,707.659790 1302.738159,707.593506 1374.157349,706.778503 
	C1384.574951,706.659607 1394.951538,702.966187 1406.006714,700.479797 
M2158.393311,452.499756 
	C2158.393311,483.283752 2158.393311,514.067749 2158.393311,544.851746 
	C2157.924072,545.151672 2157.454834,545.451599 2156.985352,545.751526 
	C2156.007568,544.709412 2154.701172,543.819580 2154.130859,542.588684 
	C2153.320557,540.840637 2153.054199,538.841064 2152.551758,536.949951 
	C2145.164795,509.138824 2126.192383,493.182831 2099.197266,487.415558 
	C2082.636230,483.877411 2065.801025,483.721283 2049.009521,486.520355 
	C2015.572632,492.094238 1992.151367,510.435822 1979.304810,541.793518 
	C1970.951538,562.183594 1968.865967,583.575928 1969.790527,605.507935 
	C1970.439697,620.913086 1972.366455,635.922974 1977.724487,650.432068 
	C1988.647461,680.009888 2008.958740,699.465881 2039.489380,707.980469 
	C2059.747559,713.630249 2080.359375,713.460632 2100.845215,710.420471 
	C2115.962646,708.177063 2130.037842,702.449524 2141.007080,691.156433 
	C2151.199463,680.663330 2156.389893,667.596375 2159.180664,653.464661 
	C2159.660156,651.035217 2159.549561,648.237610 2163.848633,649.507568 
	C2163.848633,668.903076 2163.848633,688.309875 2163.848633,707.767029 
	C2189.907959,707.767029 2215.512939,707.767029 2241.083984,707.767029 
	C2241.083984,610.858093 2241.083984,514.157898 2241.083984,417.409485 
	C2213.442627,417.409485 2186.185547,417.409485 2158.393311,417.409485 
	C2158.393311,428.913147 2158.393311,440.206451 2158.393311,452.499756 
M1553.870972,538.500061 
	C1553.870972,522.079041 1553.870972,505.658020 1553.870972,489.362427 
	C1525.768433,489.362427 1498.358398,489.362427 1471.675903,489.362427 
	C1471.675903,540.106934 1470.800659,590.557800 1471.988892,640.960083 
	C1472.759521,673.654297 1495.057617,699.031372 1526.833496,707.949097 
	C1546.380981,713.435059 1566.376343,713.790955 1586.187866,710.409424 
	C1608.991333,706.517273 1628.343506,695.882935 1640.123657,675.238892 
	C1645.066528,666.577148 1647.215210,656.337830 1650.862061,646.903809 
	C1651.526001,645.186096 1650.234131,641.230408 1655.063965,642.469482 
	C1655.063965,664.203430 1655.063965,685.948059 1655.063965,707.665649 
	C1681.232666,707.665649 1706.952637,707.665649 1732.565796,707.665649 
	C1732.565796,634.641296 1732.565796,561.932129 1732.565796,489.367157 
	C1704.804810,489.367157 1677.396484,489.367157 1649.880737,489.367157 
	C1649.880737,526.503235 1649.914429,563.322571 1649.839355,600.141785 
	C1649.829712,604.903503 1649.635254,609.725830 1648.868774,614.412537 
	C1647.167725,624.813232 1641.731567,632.273621 1631.107178,635.216614 
	C1613.835327,640.001038 1596.534668,639.924072 1579.037476,636.289673 
	C1568.571777,634.115723 1560.375610,629.208069 1556.953003,618.883667 
	C1555.019165,613.050720 1554.112061,606.648621 1554.004395,600.480896 
	C1553.649902,580.159363 1553.870972,559.827820 1553.870972,538.500061 
M768.189514,528.499939 
	C768.189514,588.245605 768.189514,647.991272 768.189514,707.697815 
	C796.240173,707.697815 823.657349,707.697815 851.252014,707.697815 
	C851.252014,685.773682 851.139893,664.126465 851.285522,642.480896 
	C851.415161,623.209534 851.467651,603.925598 852.240417,584.674805 
	C852.802795,570.668213 860.747803,562.695862 874.559631,559.973083 
	C887.850159,557.352966 901.212219,557.403625 914.469482,559.273254 
	C921.474976,560.261108 928.457092,562.323486 933.947083,567.703430 
	C941.468689,575.074219 942.785706,584.637695 942.879944,594.125244 
	C943.239014,630.276123 943.025024,666.432739 943.025085,702.587219 
	C943.025085,704.338684 943.025085,706.090210 943.025085,707.649170 
	C971.115051,707.649170 998.517029,707.649170 1026.039673,707.649170 
	C1026.039673,663.678955 1026.083374,620.034912 1025.998413,576.391052 
	C1025.983521,568.781067 1025.812256,561.132996 1025.044189,553.570435 
	C1023.096802,534.393494 1015.486145,518.012756 1000.894470,504.912292 
	C986.052917,491.587555 968.185730,486.182434 949.007690,485.098175 
	C937.354065,484.439362 925.446228,485.084961 913.886169,486.758301 
	C898.910767,488.926025 885.400452,495.101501 874.069885,505.661652 
	C860.599182,518.216431 853.172485,533.694336 850.337158,551.683044 
	C850.134277,552.970337 848.375732,554.012512 847.340576,555.168640 
	C846.896057,554.865479 846.451599,554.562378 846.007080,554.259216 
	C846.007080,532.657043 846.007080,511.054840 846.007080,489.328979 
	C819.981567,489.328979 794.269775,489.328979 768.189514,489.328979 
	C768.189514,502.240143 768.189514,514.869995 768.189514,528.499939 
M1948.131714,652.500061 
	C1948.131714,574.120911 1948.131714,495.741821 1948.131714,417.427979 
	C1920.105103,417.427979 1892.844971,417.427979 1865.401123,417.427979 
	C1865.401123,514.349976 1865.401123,611.034058 1865.401123,707.700684 
	C1893.110474,707.700684 1920.516724,707.700684 1948.131714,707.700684 
	C1948.131714,689.448730 1948.131714,671.474426 1948.131714,652.500061 
M1084.500000,489.050842 
	C1072.911743,489.050842 1061.323486,489.050842 1049.713379,489.050842 
	C1049.713379,562.352173 1049.713379,635.067322 1049.713379,707.776123 
	C1077.646484,707.776123 1105.256104,707.776123 1133.055664,707.776123 
	C1133.055664,634.864258 1133.055664,562.152893 1133.055664,489.050842 
	C1117.073608,489.050842 1101.286743,489.050842 1084.500000,489.050842 
M1840.045654,669.500000 
	C1840.045654,609.433105 1840.045654,549.366150 1840.045654,489.347534 
	C1812.074951,489.347534 1784.683716,489.347534 1757.332520,489.347534 
	C1757.332520,562.344421 1757.332520,635.046143 1757.332520,707.695679 
	C1785.034302,707.695679 1812.432617,707.695679 1840.045654,707.695679 
	C1840.045654,695.112061 1840.045654,682.806030 1840.045654,669.500000 
M660.091309,601.500000 
	C660.091309,636.912109 660.091309,672.324280 660.091309,707.698975 
	C688.109802,707.698975 715.512024,707.698975 742.841797,707.698975 
	C742.841797,634.713684 742.841797,562.008850 742.841797,489.345032 
	C715.173645,489.345032 687.784058,489.345032 660.091309,489.345032 
	C660.091309,526.593140 660.091309,563.546570 660.091309,601.500000 
M1133.256714,467.416504 
	C1133.256714,450.803436 1133.256714,434.190338 1133.256714,417.384430 
	C1105.158691,417.384430 1077.572144,417.384430 1049.686035,417.384430 
	C1049.686035,434.938751 1049.686035,452.338562 1049.686035,470.033844 
	C1077.070190,470.033844 1104.213135,470.044891 1131.355835,469.965607 
	C1131.987915,469.963745 1132.617065,468.945435 1133.256714,467.416504 
M1840.048096,450.499634 
	C1840.048096,439.544403 1840.048096,428.589203 1840.048096,417.443848 
	C1812.220093,417.443848 1784.827759,417.443848 1757.334229,417.443848 
	C1757.334229,435.081818 1757.334229,452.465454 1757.334229,469.741089 
	C1785.044067,469.741089 1812.446655,469.741089 1840.048096,469.741089 
	C1840.048096,463.459290 1840.048096,457.479370 1840.048096,450.499634 
M665.675537,417.191467 
	C663.911133,417.191467 662.146790,417.191467 660.304199,417.191467 
	C660.304199,435.093964 660.304199,452.353455 660.304199,469.828522 
	C687.920532,469.828522 715.321228,469.828522 742.823181,469.828522 
	C742.823181,452.246826 742.823181,434.868652 742.823181,417.191345 
	C717.228699,417.191345 691.932434,417.191345 665.675537,417.191467 
z"/>
<path fill="#020202" opacity="1.000000" stroke="none" 
	d="
M121.180130,717.111328 
	C125.560043,713.310913 129.814728,709.897217 133.740387,706.139771 
	C136.186111,703.798889 138.253006,703.931213 141.196442,705.209656 
	C152.300369,710.032532 163.461609,714.748901 174.769775,719.063782 
	C179.446259,720.848145 181.927734,722.909485 182.052719,728.494934 
	C182.407990,744.370300 183.483475,760.230286 184.358612,776.091797 
	C184.425598,777.305603 185.145004,778.483459 185.570114,779.703796 
	C124.832672,779.703796 64.106567,779.703796 3.107097,779.703796 
	C3.107097,719.318726 3.107097,659.097168 3.107097,599.054932 
	C5.817874,599.626221 8.575898,600.592896 11.375024,600.731873 
	C24.768963,601.396973 38.175289,601.808533 51.574078,602.383362 
	C54.195900,602.495728 56.910206,602.586731 59.378090,603.348083 
	C60.844215,603.800415 62.468891,605.309204 63.071674,606.742676 
	C68.212578,618.968262 73.004791,631.341614 78.235245,643.527466 
	C79.266510,645.930115 79.795647,647.607666 77.949982,649.625122 
	C69.020950,659.385254 60.120377,669.171509 51.219204,678.957153 
	C48.659508,681.771179 45.479446,684.285217 43.826847,687.563477 
	C42.791962,689.616333 43.016926,693.881653 44.485691,695.375305 
	C59.170891,710.310242 74.162605,724.948303 89.320045,739.405701 
	C90.531120,740.560791 94.446228,740.738953 95.701157,739.690735 
	C104.315498,732.495544 112.555405,724.851990 121.180130,717.111328 
z"/>
<path fill="#020202" opacity="1.000000" stroke="none" 
	d="
M121.000053,347.134338 
	C142.820190,347.134338 164.140305,347.134338 185.153839,347.134338 
	C184.624817,351.483215 183.849808,355.774628 183.624420,360.094727 
	C182.934341,373.322357 182.361176,386.558136 181.956436,399.797241 
	C181.846832,403.381897 180.697296,405.429962 177.178009,406.787720 
	C164.953171,411.504272 152.811844,416.447571 140.742752,421.550568 
	C137.472809,422.933167 135.441833,422.352173 132.846756,420.000854 
	C120.856766,409.136871 108.586746,398.582611 96.514473,387.808228 
	C93.503731,385.121185 91.197845,385.478333 88.448280,388.195740 
	C74.259651,402.218567 59.961433,416.130432 45.716412,430.096283 
	C41.154167,434.569092 41.357761,437.008301 45.705132,441.739502 
	C56.547714,453.539337 67.283417,465.440338 77.838249,477.496674 
	C78.840775,478.641815 78.951401,481.444916 78.316528,483.006958 
	C73.443909,494.995300 68.101738,506.794434 63.323513,518.818481 
	C61.866360,522.485291 60.119507,523.797058 56.131695,523.925476 
	C40.115704,524.441406 24.111208,525.351868 8.111126,526.267822 
	C6.435238,526.363770 4.816638,527.460449 3.024694,528.149231 
	C3.024694,468.004272 3.024694,407.798370 3.024694,347.134338 
	C42.309559,347.134338 81.404800,347.134338 121.000053,347.134338 
z"/>
<path fill="#010101" opacity="1.000000" stroke="none" 
	d="
M281.479431,523.541260 
	C290.091034,535.975647 294.557892,549.549988 294.019775,564.191772 
	C293.079590,589.773071 281.868958,609.950500 260.042542,623.826721 
	C247.645706,631.708069 234.031281,635.747498 219.370667,635.119202 
	C197.317215,634.174194 179.181290,625.047302 164.997849,607.982178 
	C154.920868,595.857727 149.272171,581.787659 149.159332,566.334045 
	C148.924286,534.144714 163.972885,511.051971 193.419052,497.719910 
	C225.033447,483.406158 263.089264,495.997070 281.479431,523.541260 
z"/>
<path fill="#FDFDFD" opacity="1.000000" stroke="none" 
	d="
M1405.677002,700.703308 
	C1394.951538,702.966187 1384.574951,706.659607 1374.157349,706.778503 
	C1302.738159,707.593506 1231.310181,707.659790 1159.885132,707.955688 
	C1159.571533,707.957031 1159.257202,707.791687 1158.696533,707.635315 
	C1158.696533,610.974243 1158.696533,514.248535 1158.696533,417.192780 
	C1160.633667,417.192780 1162.268188,417.192780 1163.902710,417.192780 
	C1228.396851,417.192841 1292.894897,416.792450 1357.382812,417.428467 
	C1377.646484,417.628326 1397.485352,421.985138 1414.866821,433.695190 
	C1430.762695,444.404327 1438.727417,459.888977 1440.215454,478.459900 
	C1441.323242,492.287689 1440.714966,506.122284 1434.573242,519.239014 
	C1426.813110,535.812256 1413.164185,544.826050 1396.420410,549.591553 
	C1388.137329,551.949036 1379.354980,552.535950 1370.819946,554.044800 
	C1369.675293,554.247131 1368.656372,555.160522 1367.106812,556.000854 
	C1380.093384,558.399902 1391.986206,559.797974 1403.425903,562.878662 
	C1426.297119,569.037781 1443.943848,581.844849 1451.453613,605.470459 
	C1454.959717,616.500549 1455.211304,628.002502 1453.496460,639.358765 
	C1452.330322,647.080872 1450.777222,654.926147 1448.014893,662.190674 
	C1440.534668,681.861877 1425.635864,693.884827 1405.677002,700.703308 
M1266.499756,634.364319 
	C1294.937134,634.121765 1323.374634,633.894043 1351.811768,633.629272 
	C1363.568970,633.519836 1369.158691,629.409790 1370.047119,618.087097 
	C1371.243896,602.834778 1368.236816,594.806580 1350.108765,594.751221 
	C1315.464600,594.645325 1280.819824,594.720459 1246.175293,594.720459 
	C1244.424561,594.720459 1242.673706,594.720459 1241.402832,594.720459 
	C1241.402832,608.267090 1241.402832,621.143127 1241.402832,634.364319 
	C1249.890381,634.364319 1257.695068,634.364319 1266.499756,634.364319 
M1354.103882,497.521667 
	C1351.011719,495.801819 1348.093384,493.490326 1344.781860,492.516357 
	C1340.905029,491.376099 1336.687256,491.001373 1332.614380,490.984283 
	C1303.830200,490.863647 1275.045410,490.920166 1246.260742,490.920166 
	C1244.489014,490.920166 1242.717163,490.920166 1241.308105,490.920166 
	C1241.308105,503.213745 1241.308105,514.927429 1241.308105,526.244507 
	C1242.029785,526.718018 1242.158936,526.876892 1242.288330,526.877197 
	C1275.058228,526.950867 1307.828979,527.157959 1340.596802,526.924377 
	C1345.656250,526.888367 1351.810791,526.399536 1354.650635,521.256348 
	C1358.775146,513.786438 1358.756836,505.790619 1354.103882,497.521667 
z"/>
<path fill="#FDFDFD" opacity="1.000000" stroke="none" 
	d="
M2158.393311,451.999756 
	C2158.393311,440.206451 2158.393311,428.913147 2158.393311,417.409485 
	C2186.185547,417.409485 2213.442627,417.409485 2241.083984,417.409485 
	C2241.083984,514.157898 2241.083984,610.858093 2241.083984,707.767029 
	C2215.512939,707.767029 2189.907959,707.767029 2163.848633,707.767029 
	C2163.848633,688.309875 2163.848633,668.903076 2163.848633,649.507568 
	C2159.549561,648.237610 2159.660156,651.035217 2159.180664,653.464661 
	C2156.389893,667.596375 2151.199463,680.663330 2141.007080,691.156433 
	C2130.037842,702.449524 2115.962646,708.177063 2100.845215,710.420471 
	C2080.359375,713.460632 2059.747559,713.630249 2039.489380,707.980469 
	C2008.958740,699.465881 1988.647461,680.009888 1977.724487,650.432068 
	C1972.366455,635.922974 1970.439697,620.913086 1969.790527,605.507935 
	C1968.865967,583.575928 1970.951538,562.183594 1979.304810,541.793518 
	C1992.151367,510.435822 2015.572632,492.094238 2049.009521,486.520355 
	C2065.801025,483.721283 2082.636230,483.877411 2099.197266,487.415558 
	C2126.192383,493.182831 2145.164795,509.138824 2152.551758,536.949951 
	C2153.054199,538.841064 2153.320557,540.840637 2154.130859,542.588684 
	C2154.701172,543.819580 2156.007568,544.709412 2156.985352,545.751526 
	C2157.454834,545.451599 2157.924072,545.151672 2158.393311,544.851746 
	C2158.393311,514.067749 2158.393311,483.283752 2158.393311,451.999756 
M2072.006592,564.255920 
	C2064.258545,567.760925 2057.584473,573.132141 2055.969727,581.424316 
	C2054.226562,590.375793 2053.952881,599.848877 2054.615479,608.979858 
	C2055.675049,623.573364 2064.950439,631.876221 2078.768555,634.664734 
	C2098.031494,638.551880 2117.436523,638.551147 2136.512695,633.492126 
	C2147.385498,630.608521 2154.659424,623.147705 2156.616455,611.981201 
	C2157.877930,604.784058 2157.665039,597.273804 2157.591064,589.909180 
	C2157.455078,576.393066 2148.437012,565.973267 2135.283447,562.642517 
	C2122.755371,559.470215 2110.046387,559.592163 2097.391113,560.198914 
	C2089.135498,560.594727 2080.960205,562.665344 2072.006592,564.255920 
z"/>
<path fill="#FDFDFD" opacity="1.000000" stroke="none" 
	d="
M1553.870972,539.000122 
	C1553.870972,559.827820 1553.649902,580.159363 1554.004395,600.480896 
	C1554.112061,606.648621 1555.019165,613.050720 1556.953003,618.883667 
	C1560.375610,629.208069 1568.571777,634.115723 1579.037476,636.289673 
	C1596.534668,639.924072 1613.835327,640.001038 1631.107178,635.216614 
	C1641.731567,632.273621 1647.167725,624.813232 1648.868774,614.412537 
	C1649.635254,609.725830 1649.829712,604.903503 1649.839355,600.141785 
	C1649.914429,563.322571 1649.880737,526.503235 1649.880737,489.367157 
	C1677.396484,489.367157 1704.804810,489.367157 1732.565796,489.367157 
	C1732.565796,561.932129 1732.565796,634.641296 1732.565796,707.665649 
	C1706.952637,707.665649 1681.232666,707.665649 1655.063965,707.665649 
	C1655.063965,685.948059 1655.063965,664.203430 1655.063965,642.469482 
	C1650.234131,641.230408 1651.526001,645.186096 1650.862061,646.903809 
	C1647.215210,656.337830 1645.066528,666.577148 1640.123657,675.238892 
	C1628.343506,695.882935 1608.991333,706.517273 1586.187866,710.409424 
	C1566.376343,713.790955 1546.380981,713.435059 1526.833496,707.949097 
	C1495.057617,699.031372 1472.759521,673.654297 1471.988892,640.960083 
	C1470.800659,590.557800 1471.675903,540.106934 1471.675903,489.362427 
	C1498.358398,489.362427 1525.768433,489.362427 1553.870972,489.362427 
	C1553.870972,505.658020 1553.870972,522.079041 1553.870972,539.000122 
z"/>
<path fill="#FDFDFD" opacity="1.000000" stroke="none" 
	d="
M768.189514,527.999878 
	C768.189514,514.869995 768.189514,502.240143 768.189514,489.328979 
	C794.269775,489.328979 819.981567,489.328979 846.007080,489.328979 
	C846.007080,511.054840 846.007080,532.657043 846.007080,554.259216 
	C846.451599,554.562378 846.896057,554.865479 847.340576,555.168640 
	C848.375732,554.012512 850.134277,552.970337 850.337158,551.683044 
	C853.172485,533.694336 860.599182,518.216431 874.069885,505.661652 
	C885.400452,495.101501 898.910767,488.926025 913.886169,486.758301 
	C925.446228,485.084961 937.354065,484.439362 949.007690,485.098175 
	C968.185730,486.182434 986.052917,491.587555 1000.894470,504.912292 
	C1015.486145,518.012756 1023.096802,534.393494 1025.044189,553.570435 
	C1025.812256,561.132996 1025.983521,568.781067 1025.998413,576.391052 
	C1026.083374,620.034912 1026.039673,663.678955 1026.039673,707.649170 
	C998.517029,707.649170 971.115051,707.649170 943.025085,707.649170 
	C943.025085,706.090210 943.025085,704.338684 943.025085,702.587219 
	C943.025024,666.432739 943.239014,630.276123 942.879944,594.125244 
	C942.785706,584.637695 941.468689,575.074219 933.947083,567.703430 
	C928.457092,562.323486 921.474976,560.261108 914.469482,559.273254 
	C901.212219,557.403625 887.850159,557.352966 874.559631,559.973083 
	C860.747803,562.695862 852.802795,570.668213 852.240417,584.674805 
	C851.467651,603.925598 851.415161,623.209534 851.285522,642.480896 
	C851.139893,664.126465 851.252014,685.773682 851.252014,707.697815 
	C823.657349,707.697815 796.240173,707.697815 768.189514,707.697815 
	C768.189514,647.991272 768.189514,588.245605 768.189514,527.999878 
z"/>
<path fill="#FDFDFD" opacity="1.000000" stroke="none" 
	d="
M1948.131714,653.000122 
	C1948.131714,671.474426 1948.131714,689.448730 1948.131714,707.700684 
	C1920.516724,707.700684 1893.110474,707.700684 1865.401123,707.700684 
	C1865.401123,611.034058 1865.401123,514.349976 1865.401123,417.427979 
	C1892.844971,417.427979 1920.105103,417.427979 1948.131714,417.427979 
	C1948.131714,495.741821 1948.131714,574.120911 1948.131714,653.000122 
z"/>
<path fill="#FCFCFC" opacity="1.000000" stroke="none" 
	d="
M1085.000000,489.050842 
	C1101.286743,489.050842 1117.073608,489.050842 1133.055664,489.050842 
	C1133.055664,562.152893 1133.055664,634.864258 1133.055664,707.776123 
	C1105.256104,707.776123 1077.646484,707.776123 1049.713379,707.776123 
	C1049.713379,635.067322 1049.713379,562.352173 1049.713379,489.050842 
	C1061.323486,489.050842 1072.911743,489.050842 1085.000000,489.050842 
z"/>
<path fill="#FEFEFE" opacity="1.000000" stroke="none" 
	d="
M1840.045654,670.000000 
	C1840.045654,682.806030 1840.045654,695.112061 1840.045654,707.695679 
	C1812.432617,707.695679 1785.034302,707.695679 1757.332520,707.695679 
	C1757.332520,635.046143 1757.332520,562.344421 1757.332520,489.347534 
	C1784.683716,489.347534 1812.074951,489.347534 1840.045654,489.347534 
	C1840.045654,549.366150 1840.045654,609.433105 1840.045654,670.000000 
z"/>
<path fill="#FDFDFD" opacity="1.000000" stroke="none" 
	d="
M660.091309,601.000000 
	C660.091309,563.546570 660.091309,526.593140 660.091309,489.345032 
	C687.784058,489.345032 715.173645,489.345032 742.841797,489.345032 
	C742.841797,562.008850 742.841797,634.713684 742.841797,707.698975 
	C715.512024,707.698975 688.109802,707.698975 660.091309,707.698975 
	C660.091309,672.324280 660.091309,636.912109 660.091309,601.000000 
z"/>
<path fill="#FBFBFB" opacity="1.000000" stroke="none" 
	d="
M1133.252197,467.908875 
	C1132.617065,468.945435 1131.987915,469.963745 1131.355835,469.965607 
	C1104.213135,470.044891 1077.070190,470.033844 1049.686035,470.033844 
	C1049.686035,452.338562 1049.686035,434.938751 1049.686035,417.384430 
	C1077.572144,417.384430 1105.158691,417.384430 1133.256714,417.384430 
	C1133.256714,434.190338 1133.256714,450.803436 1133.252197,467.908875 
z"/>
<path fill="#FDFDFD" opacity="1.000000" stroke="none" 
	d="
M1840.048096,450.999542 
	C1840.048096,457.479370 1840.048096,463.459290 1840.048096,469.741089 
	C1812.446655,469.741089 1785.044067,469.741089 1757.334229,469.741089 
	C1757.334229,452.465454 1757.334229,435.081818 1757.334229,417.443848 
	C1784.827759,417.443848 1812.220093,417.443848 1840.048096,417.443848 
	C1840.048096,428.589203 1840.048096,439.544403 1840.048096,450.999542 
z"/>
<path fill="#FCFCFC" opacity="1.000000" stroke="none" 
	d="
M666.155884,417.191406 
	C691.932434,417.191345 717.228699,417.191345 742.823181,417.191345 
	C742.823181,434.868652 742.823181,452.246826 742.823181,469.828522 
	C715.321228,469.828522 687.920532,469.828522 660.304199,469.828522 
	C660.304199,452.353455 660.304199,435.093964 660.304199,417.191467 
	C662.146790,417.191467 663.911133,417.191467 666.155884,417.191406 
z"/>
<path fill="#020202" opacity="1.000000" stroke="none" 
	d="
M1265.999756,634.364319 
	C1257.695068,634.364319 1249.890381,634.364319 1241.402832,634.364319 
	C1241.402832,621.143127 1241.402832,608.267090 1241.402832,594.720459 
	C1242.673706,594.720459 1244.424561,594.720459 1246.175293,594.720459 
	C1280.819824,594.720459 1315.464600,594.645325 1350.108765,594.751221 
	C1368.236816,594.806580 1371.243896,602.834778 1370.047119,618.087097 
	C1369.158691,629.409790 1363.568970,633.519836 1351.811768,633.629272 
	C1323.374634,633.894043 1294.937134,634.121765 1265.999756,634.364319 
z"/>
<path fill="#020202" opacity="1.000000" stroke="none" 
	d="
M1354.381470,497.787537 
	C1358.756836,505.790619 1358.775146,513.786438 1354.650635,521.256348 
	C1351.810791,526.399536 1345.656250,526.888367 1340.596802,526.924377 
	C1307.828979,527.157959 1275.058228,526.950867 1242.288330,526.877197 
	C1242.158936,526.876892 1242.029785,526.718018 1241.308105,526.244507 
	C1241.308105,514.927429 1241.308105,503.213745 1241.308105,490.920166 
	C1242.717163,490.920166 1244.489014,490.920166 1246.260742,490.920166 
	C1275.045410,490.920166 1303.830200,490.863647 1332.614380,490.984283 
	C1336.687256,491.001373 1340.905029,491.376099 1344.781860,492.516357 
	C1348.093384,493.490326 1351.011719,495.801819 1354.381470,497.787537 
z"/>
<path fill="#010101" opacity="1.000000" stroke="none" 
	d="
M2072.377686,564.120850 
	C2080.960205,562.665344 2089.135498,560.594727 2097.391113,560.198914 
	C2110.046387,559.592163 2122.755371,559.470215 2135.283447,562.642517 
	C2148.437012,565.973267 2157.455078,576.393066 2157.591064,589.909180 
	C2157.665039,597.273804 2157.877930,604.784058 2156.616455,611.981201 
	C2154.659424,623.147705 2147.385498,630.608521 2136.512695,633.492126 
	C2117.436523,638.551147 2098.031494,638.551880 2078.768555,634.664734 
	C2064.950439,631.876221 2055.675049,623.573364 2054.615479,608.979858 
	C2053.952881,599.848877 2054.226562,590.375793 2055.969727,581.424316 
	C2057.584473,573.132141 2064.258545,567.760925 2072.377686,564.120850 
z"/>
</svg>