<?xml version="1.0" encoding="UTF-8"?>
<svg height="122.63" width="382.7" xmlns="http://www.w3.org/2000/svg">
 <metadata/>
 <g fill="#040404" fill-rule="evenodd" transform="matrix(.99235 0 0 .98678 -375.68 -685.98)">
  <path d="m676.828 775.988-3.56643 17.8429c-.25746 1.78394-.76474 2.80351-1.02207 3.31309-.50742.50956-1.27579.76437-2.03691.76437-1.01846 0-1.5295-.25487-1.78683-.76437-.2537-.50958-.2537-1.78396 0-3.31309l2.29425-10.4513c.2537-1.78394 1.52949-3.82268 4.08109-5.60623.76474-.76619 1.52586-1.53205 2.0369-1.78538zm-13.2544-7.39197h10.1955l1.78683-9.17409c.25369-1.53056.76112-2.54975 1.27216-3.31449.51103-.51105 1.01845-.76586 2.03692-.76586.76837 0 1.53311.25486 1.53311.76586.25371.50958.25371 1.52915 0 3.31449l-.76474 3.31128c-.51106 2.80347-3.57004 6.37384-8.15853 8.41112-3.82375 1.53058-6.118 3.05972-7.64386 4.58885-1.27578 1.53023-2.29787 3.56896-2.80528 6.37242l-3.05901 15.548c-.76474 3.05937-.51103 5.35325.25371 6.88346 1.02208 1.52916 2.54796 2.29353 4.84221 2.29353 1.78682 0 3.3127-.50959 5.09953-1.52878 1.5295-1.27578 3.05899-2.8049 4.33477-4.84365l-1.27578 5.60806h9.43069l10.1954-49.4492c.51102-2.80311 0-4.84331-1.78321-6.37387-2.04055-2.03764-5.35325-2.80237-8.92328-2.54506-3.82374 0-7.64387 1.27218-9.93811 3.31126-2.55158 2.04016-4.08108 5.09809-4.84583 9.43031l-1.78321 8.15636zm-155.998-31.097-2.29062 10.9602h-3.31633l-1.52949 7.64823h3.31632l-8.41586 41.5461c-.76112 3.56931-.50741 5.86284.76837 7.39343 1.27217 1.27397 3.82374 1.78356 7.90118 1.78356h2.80531l1.7832-8.6674h-.51105c-1.01844 0-1.78321-.25487-2.29424-.76437-.25371-.50815-.25371-2.03874.25748-4.33367l7.39015-36.9577h3.57003l1.52586-7.64823h-3.3127l2.04056-10.9602h-9.68802zm192.195 0h9.9381l-2.29062 10.9602h3.56642l-1.78321 7.64823h-3.3127l-7.39379 36.9577c-.51102 2.29493-.76473 3.82552-.25746 4.33367.25746.50959 1.02207.76437 2.29787.76437h.2537l-1.78683 8.6674h-2.80166c-4.07745 0-6.62903-.50959-7.90119-1.78356-1.2758-1.53059-1.52949-3.82412-.76474-7.39343l8.41222-41.5461h-3.31631l1.52949-7.64823h3.31632l2.29424-10.9602zm-319.385 70.0963 14.7836-73.1553h25.4911l-1.78539 9.43431h-14.2725l-3.5704 18.604h14.2754l-2.03871 9.17588h-14.274l-7.13863 35.941h-11.4705zm42.3134-73.92-14.7836 73.92h9.9403l14.5288-73.92zm10.9595 15.0413h9.94173l-11.7268 58.8788h-9.93883l11.7238-58.8788zm.76471-3.82374 2.0402-11.2175h9.94135l-2.04123 11.2175zm38.4908 3.56639h-9.94173l-1.27545 5.60951c-.25487-2.0402-1.01953-3.57041-2.29351-4.58849-1.27433-1.27472-2.54867-1.78214-4.33259-1.78214-2.29496 0-4.3337.50742-5.60911 1.78214-1.27438 1.27286-2.2921 3.56931-2.80204 6.37094l-7.13825 35.9396c-.5096 2.806-.5096 4.84367.5096 6.3724.76619 1.2758 2.0387 2.0402 4.33258 2.0402 1.53166 0 3.31418-.50959 4.58851-1.52916 1.5302-.76582 2.80453-1.27541 4.33367-3.05934l-2.2935 10.7061c-.25516 1.78395-.76475 3.05825-1.27581 3.82412-.50958.50959-1.27433 1.01917-2.2935 1.01917-.7633 0-1.27289-.25487-1.52771-.76439-.25631-.50959 1.27435-7.39305 1.27435-8.15636l.25342-.25486h-9.9403c0 .50814-1.78392 7.39049-1.78392 7.90154-.50958 6.37099 3.56786 9.17408 10.7061 9.17408 9.6855 0 13.5081-4.84326 15.0373-12.7434l11.472-57.8617zm-18.0995 38.9993 5.35322-27.0188c.25487-1.27251.25487-2.03872 0-2.54829-.25486-.76438-.76439-1.01919-1.52915-1.01919-.76292 0-1.27396.25487-1.78393 1.01919-.51103.50957-.76436 1.27578-1.01917 2.54829l-5.35324 27.0188c-.25487 1.27433-.25487 2.04015 0 2.80456.25487.50994.76474.76475 1.52914.76475.51104 0 1.27433-.25487 1.78393-.76475.5096-.76441.76438-1.53023 1.0192-2.80456zm9.68693 20.1368 14.5288-73.92h9.94173l-4.08037 19.6276c1.27401-1.52916 2.54979-3.05972 4.08037-4.07744 1.52914-1.01992 3.05502-1.52734 4.84184-1.52734 2.29425 0 3.82375.76112 4.5885 2.03547.76474 1.27579.76474 3.31598.25371 6.37388l-10.194 51.4879h-9.94138l9.43034-47.4104c.25632-1.01773.25632-2.0387 0-2.54829-.25487-.76441-.76441-1.01957-1.53022-1.01957-.50997 0-1.27434.25516-1.78393 1.01957-.50851.50959-.76331 1.27541-1.01812 2.54829l-9.17698 47.4104h-9.94028zm98.3898-59.3898-2.29425 12.7441h-10.9602l2.54796-14.0163c.2537-2.04053.51103-3.57003 0-4.58849-.25371-.76474-1.01847-1.02209-2.29426-1.02209-1.27578 0-2.29424.25749-3.05537 1.02209-.51103.76112-1.02209 2.29061-1.53311 4.58849l-1.01847 5.09517c-.51103 3.05827 1.27218 7.39341 4.84221 12.9997 1.7832 2.54863 2.80529 4.58883 3.82374 5.86133 1.52951 2.80496 2.54795 5.3518 2.80166 7.90303.51105 2.54689.76475 4.84183.25749 7.39196l-1.01847 5.60623c-1.02208 5.35325-3.31633 9.43212-6.37532 12.49-3.05899 2.80601-7.13644 4.33371-11.7213 4.33371-5.35323 0-8.66955-1.27399-10.4528-4.07745-1.7832-2.54833-2.04053-6.88349-1.01845-13.2544l2.54796-12.49h10.9602l-2.80529 14.2726c-.50741 2.54974-.50741 4.07889 0 4.84326.25749.76582 1.02208 1.2758 2.54796 1.2758 1.2758 0 2.29787-.50998 2.80529-1.2758.76837-.76437 1.27578-2.54833 1.78321-4.84326l1.02207-5.35182c0-.76437.25371-1.78391 0-2.80309 0-.76439 0-1.7854-.25717-2.80459-.25372-1.27433-1.52589-3.82264-3.56643-7.13717-1.52949-2.29352-2.80529-4.07891-3.56641-5.60657-2.04052-3.57041-3.31632-6.62865-3.57365-8.66739-.50742-2.54832-.50742-5.09808 0-7.64496l1.02209-5.86245c1.01845-4.8422 2.80527-8.41223 5.86426-11.2175 3.31271-2.54795 7.13644-3.82373 11.725-3.82373 4.58486 0 7.90118 1.27578 9.68439 4.08107 1.78682 2.54795 2.29425 6.62538 1.27579 11.9786zm5.09953.2537-11.9823 59.1361h10.1954l11.9823-59.1361zm.76113-3.82374 2.29423-11.2139h9.94174l-2.04054 11.2139h-10.1954zm13.2544 3.82374h9.43069l-1.01846 5.60951c1.27217-2.0402 2.80529-3.57041 4.33478-4.84329 1.78322-1.01992 3.31271-1.78465 5.09591-1.78465s3.3127.51102 4.07745 1.52949c1.02208 1.0181 1.53311 2.54866 1.53311 4.58886.76114-1.78542 2.03692-3.31598 3.82013-4.3337 1.5295-1.27363 3.31271-1.78465 5.35323-1.78465 2.04055 0 3.57005.76473 4.33117 2.03945.76475 1.52912.76475 3.56931.25747 6.37094l-10.4492 51.7441h-9.68802l9.4307-47.4104c.25746-1.27288 0-2.0387-.25371-2.80311-.25371-.50959-.76475-.76475-1.27578-.76475-.76477 0-1.27218.25516-1.78321.76475-.50742.76441-1.01846 1.53023-1.27579 2.80311l-9.43069 47.4104h-9.93812l9.43071-47.4104c.25369-1.27288.25369-2.0387 0-2.80311-.25749-.50959-.76476-.76475-1.53313-.76475-.50742 0-1.27216.25516-1.78321.76475-.50742.76441-.76473 1.53023-1.01845 2.80311l-9.43069 47.4104h-9.94173l11.7249-59.1361zm42.8223 0-10.1954 51.7441c-.50741 3.05827-.50741 5.09842.25371 6.37242 1.02209 1.27433 2.5516 2.03873 4.84221 2.03873 1.78683 0 3.31632-.7644 5.09953-1.78395 1.5295-1.01918 3.059-2.80453 4.33478-4.84183l-1.27578 5.6066h9.68802l11.7249-59.1361h-9.94173l-9.43069 47.6652c-.25746 1.01955-.76474 2.0387-1.27578 2.54974-.25372.50998-1.01845.76476-1.5295.76476-.76474 0-1.27216-.25487-1.52949-.76476-.25371-.51104-.25371-1.53019-.25371-2.54974l9.43069-47.6652h-9.94173zm31.3511-15.0376h9.94171l-14.7803 74.1737h-9.94173l14.7803-74.1737zm71.118 60.9204 6.37533-32.6265c1.01482-4.84329.76112-8.4126-1.02572-10.7061-1.52586-2.29279-4.32753-3.56857-8.4086-3.56857-4.07746 0-7.39379 1.27578-9.94173 3.56857-2.54795 2.29352-4.33115 5.86283-5.09591 10.7061l-6.62903 32.6265c-1.01847 4.8422-.51103 8.40968 1.01846 10.705 1.53312 2.29352 4.33477 3.56751 8.66956 3.56751 4.07745 0 7.39015-1.27399 9.6844-3.56751 2.54796-2.29534 4.33478-5.86282 5.35324-10.705zm-7.90482-34.6652-7.13282 36.4477c-.51103 1.52911-.51103 2.54974-.25748 3.3145.25748.50962.76839.7644 1.78683.7644.76475 0 1.52587-.25487 2.03693-.7644.2537-.50957.76474-1.53058 1.01844-3.3145l7.39378-36.4477c.25371-1.78537.25371-2.80456 0-3.5693-.25747-.51105-.76475-.76586-1.52949-.76586-1.01847 0-1.78322.25486-2.04054 1.02064-.50742.50996-1.01846 1.52915-1.27579 3.31452zm8.9269 47.9186 11.7213-59.1361h9.43067l-1.01845 5.60951c1.2758-2.0402 2.55158-3.57041 4.33117-4.84329 1.53311-1.01992 3.31632-1.52734 5.09954-1.52734 2.29423 0 3.82372.50742 4.58848 1.78211.76474 1.52915.76474 3.56931.25371 6.37097l-4.58849 22.6866h-9.68441l3.56642-18.3529c.25747-1.27288.25747-2.0387 0-2.80311-.25372-.50959-.76113-.76475-1.52588-.76475-.76474 0-1.2758.25516-1.78682.76475-.50741.76441-.76476 1.53023-1.01847 2.80311l-9.43068 47.4104h-9.93811z"/>
  <path d="m395.116 727.924 6.042-31.4876h8.2717l-.95384 16.2232 5.08812-16.2232h7.63397l-6.04243 31.4876h-5.08993l4.13429-20.6736-6.36221 20.6736h-4.76972l.95207-20.6736-3.81451 20.6736zm38.4875-20.3525-2.86381 15.2644v1.59201c.31803.3213.31803.3213.95564.3213.3184 0 .63637 0 .9543-.3213.31804-.31659.31804-.63319.63591-1.59201l.95249-4.767h4.77154l-.63592 4.13381c-.63589 1.90861-1.27179 3.50063-2.54403 4.45493-1.27361.94978-2.86202 1.5875-4.772 1.5875-2.22611 0-3.49792-.63772-4.45175-1.5875-.63638-.9543-.95431-2.54632-.63638-4.45493l2.54408-13.6769c.63634-2.22973 1.27224-3.50063 2.54405-4.45041 1.27408-.95882 2.862-1.59654 4.772-1.59654 2.22611 0 3.4979.63772 4.45403 1.59654.95203.94978.95203 2.22068.63408 4.45041l-.63408 3.81722h-5.08994l.95384-4.77153v-1.59201s-.31805-.3166-.95384-.3166c-.31803 0-.6377.3166-.95568.63319-.31841 0-.31841.63772-.63453 1.27542zm4.77015 20.3525h5.08995l4.13429-20.0359c0-.6377.31803-.95429.31803-1.27089.31986-.32129.63591-.32129.95388-.32129.31985 0 .6377 0 .95564.32129v1.27089l-1.58974 7.95105h5.08812l1.90815-9.85965c.31984-1.2709 0-2.2252-.31841-2.54179-.31803-.63772-1.2718-.95884-2.22564-.95884-.95431 0-1.90998.3213-2.86248.63772-.63591.63771-1.27361 1.27541-1.90952 2.22519l.31986-2.54179h-4.77201l-5.08993 25.124zm69.3401-29.8956h5.08946l-.95384 4.77153h1.90815l-.63591 3.17951h-1.90814l-3.17998 16.2232c-.31986.9543-.31986 1.59201 0 1.90861 0 .31659.6359.31659 1.2718.31659l-.6359 3.81723h-1.59202c-1.9077 0-3.17994-.3213-4.13382-.95431-.63632-.63319-.63632-1.58749-.31803-3.17951l3.4979-18.1318h-2.8602l-4.13609 21.9445h-5.40787l4.45403-21.9445h-1.90995l.63587-3.17951h1.90998l.31804-2.22972c.31805-1.26638.95434-2.22069 1.90638-2.85841.95565-.63771 2.22973-1.27541 3.81947-1.27541h2.22429l-.63408 4.13382h-1.91007c0 .32129-.31803.6377-.31803.95429l-.31805 1.27543h2.86201l.95431-4.77153zm-19.4005 9.54305-3.18175 15.2644v1.59201c.31804.3213.6359.3213.95383.3213.31804 0 .63456 0 .9525-.3213.31985-.31659.31985-.63319.6377-1.59201l2.86202-15.2644c.31805-.6377.31805-1.27542.31805-1.59201-.31805 0-.63591-.3166-.95387-.3166-.63454 0-.95251.3166-.95251.63319-.31803 0-.6359.63772-.6359 1.27542zm4.45223 14.6312 2.862-13.6769c.31805-2.22973.31805-3.50063-.6359-4.45041-.9543-.95882-2.2261-1.59654-4.45403-1.59654-2.2243 0-3.81766.63772-5.08812 1.59654-1.2718.94978-1.90996 2.22068-2.54404 4.45041l-2.54589 13.6769c-.6359 1.90861-.31805 3.50063.6359 4.45493.95611.94978 2.22792 1.5875 4.45403 1.5875 1.90818 0 3.81769-.63772 5.08812-1.5875 1.27362-.9543 1.90999-2.54632 2.22793-4.45493zm-25.1299-4.13381h5.09174l-.95387 4.767c-.31986.95882-.31986 1.27542 0 1.59201 0 .3213.31803.3213.6359.3213.6359 0 .95387 0 1.27047-.3213 0-.31659.31804-.63319.31804-1.59201l.31803-1.2709c.31805-1.5875-.31803-2.86292-1.58839-4.45041-.31804-.3166-.6359-.63772-.95387-.95884 0 0-.31985-.31659-.63952-.63319-1.90633-2.22972-2.54223-4.13382-2.2243-5.72583l.31804-1.90862c.31805-1.9086 1.27-3.1795 2.54585-4.1338 1.2718-.95431 2.86021-1.27543 5.08632-1.27543 1.90951 0 3.49972.63772 4.45359 1.59654.63815.94978.95612 2.5418.63815 4.45041l-.95613 3.81722h-5.08811l.9525-4.77153c.31804-.6377.31804-1.27542 0-1.59201 0 0-.31623-.3166-.9525-.3166-.31804 0-.6359.3166-.95384.63319 0 0-.31985.63772-.31985 1.27542l-.31804 1.2709c-.31804 1.27543.31804 2.86292 1.59154 4.13382.31805.3166.31805.63772.63638.63772 0 .31659.31623.31659.31623.63771 2.22793 2.2252 3.1818 4.45041 2.86382 6.35902l-.63589 2.22521c-.31842 1.59201-.95431 2.86744-2.22793 3.82174-1.27043.94978-3.17995 1.5875-5.08631 1.5875-2.22792 0-3.50016-.63772-4.4558-1.5875-.95207-.9543-.95207-2.54632-.63413-4.77152l.95205-3.81722zm-6.67971-10.4974-3.17994 15.2644v1.59201c.31803.3213.6377.3213.95565.3213.31803 0 .95387 0 .95387-.3213.31804-.31659.31804-.63319.63452-1.59201l3.18359-15.2644v-1.59201c-.31839 0-.63637-.3166-.95429-.3166-.63592 0-.95569.3166-.95569.63319-.31985 0-.63771.63772-.63771 1.27542zm4.4554 14.6312c-.31804 1.90861-.95567 3.50063-2.2261 4.45493-1.27182.94978-2.8652 1.5875-5.09131 1.5875-2.22431 0-3.49834-.63772-4.45223-1.5875-.95383-.9543-1.27042-2.54632-.6359-4.45493l2.5459-13.6769c.6359-2.22973 1.27179-3.50063 2.54223-4.45041 1.27361-.95882 2.86201-1.59654 5.09131-1.59654 2.2261 0 3.49834.63772 4.45041 1.59654.95611.94978.95611 2.22068.63771 4.45041zm-41.9876-20.9947.95431-4.77152h5.08993l-.95431 4.77152zm-.31805 1.59202-5.08811 25.124h5.08811l5.08998-25.124z"/>
 </g>
</svg>
