<svg version="1.1" id="Layer_1" xmlns="http://www.w3.org/2000/svg" xmlns:xlink="http://www.w3.org/1999/xlink" x="0px" y="0px"
	 width="100%" viewBox="0 0 1400 400" enable-background="new 0 0 1400 400" xml:space="preserve">
<path fill="#FFFFFF" opacity="1.000000" stroke="none" 
	d="
M891.000000,401.000000 
	C594.000000,401.000000 297.500031,401.000000 1.000040,401.000000 
	C1.000026,267.666687 1.000026,134.333389 1.000013,1.000058 
	C467.666626,1.000039 934.333252,1.000039 1401.000000,1.000019 
	C1401.000000,134.333267 1401.000000,267.666534 1401.000000,400.999908 
	C1231.166626,401.000000 1061.333374,401.000000 891.000000,401.000000 
M191.994705,287.004944 
	C191.994705,287.004944 191.932159,287.026428 192.091049,287.534210 
	C192.386475,287.710785 192.681900,287.887329 192.996964,288.003601 
	C192.996964,288.003601 192.936737,288.023438 193.090637,288.533264 
	C193.385986,288.710541 193.681320,288.887817 193.996490,289.004150 
	C193.996490,289.004150 193.935577,289.024048 194.089081,289.534302 
	C194.384262,289.712555 194.679443,289.890808 194.994919,290.005798 
	C194.994919,290.005798 194.931625,290.026001 195.087143,290.536163 
	C195.382736,290.714294 195.678329,290.892395 195.994247,291.006409 
	C195.994247,291.006409 195.930161,291.026886 196.086426,291.536926 
	C196.382202,291.714813 196.677979,291.892700 196.994186,292.006439 
	C196.994186,292.006439 196.930145,292.027252 197.090973,292.542328 
	C197.393829,292.713562 197.696686,292.884766 198.182663,293.500610 
	C198.379379,293.780304 198.647263,293.942352 199.136993,294.472961 
	C199.431641,294.574554 199.726273,294.676147 200.626755,295.107178 
	C201.828323,296.256958 202.930939,297.536957 204.246521,298.536682 
	C219.962677,310.479553 237.403687,318.871094 256.764191,322.748932 
	C270.105713,325.421234 283.649017,326.165833 297.217743,324.029633 
	C303.657043,323.015839 310.109070,322.082855 316.649811,321.099060 
	C316.410339,321.462677 316.302490,321.815948 316.067444,321.956421 
	C294.732971,334.708649 271.983307,343.318665 247.115128,346.089172 
	C230.556808,347.933868 214.048386,347.789825 197.712479,344.812897 
	C177.709595,341.167755 159.097244,333.523163 141.759308,322.945129 
	C132.625717,317.372650 123.978165,311.106628 118.993332,301.135010 
	C114.901382,292.949493 110.643257,284.837097 106.851494,276.513367 
	C95.189453,250.912735 93.719215,224.246140 100.406502,197.289276 
	C109.673676,159.932739 130.650833,130.640167 163.375488,110.061424 
	C184.098434,97.029907 206.644211,89.917191 231.241653,90.022377 
	C238.518921,90.053490 245.891663,90.032974 253.043060,91.161484 
	C260.669952,92.365005 268.084351,94.909813 275.596405,96.850014 
	C278.187439,97.519211 280.793213,98.131149 283.392273,98.769249 
	C283.489502,98.185349 283.586731,97.601448 283.683960,97.017540 
	C236.182022,65.372551 187.783829,67.054131 138.586273,93.467911 
	C194.335281,34.823078 260.008911,17.544245 337.006470,46.009186 
	C330.500305,40.775928 324.226959,35.947193 317.346405,32.247807 
	C289.312347,17.175079 259.407745,10.733311 227.517441,12.883410 
	C212.990540,13.862839 198.874649,16.569965 185.248123,21.210815 
	C153.632507,31.978292 127.376480,50.699787 106.058197,76.428810 
	C81.529411,106.032570 68.442436,140.272446 65.197884,178.295914 
	C63.845459,194.145081 64.911232,210.115005 68.222092,225.684708 
	C75.133278,258.185333 89.819260,286.818542 113.351212,310.461212 
	C120.518532,317.662262 129.070709,323.464569 136.740891,330.190033 
	C150.363174,342.134460 164.834961,352.594849 181.429688,360.255890 
	C200.946808,369.266083 221.424530,374.073273 242.652664,374.724701 
	C255.268082,375.111816 268.205933,374.121979 280.575165,371.639893 
	C313.750732,364.982758 343.109894,350.031952 367.061951,325.989166 
	C376.979553,316.033997 385.587646,304.518005 393.423767,292.797577 
	C411.109344,266.345184 418.849121,236.522720 419.646057,204.977478 
	C419.893707,195.174393 418.465240,185.231277 416.894775,175.498993 
	C412.802185,150.137222 403.331940,127.004112 386.965912,106.369522 
	C386.317047,105.541023 385.668213,104.712517 384.895599,103.440063 
	C384.719238,103.158218 384.465576,103.001434 383.859650,102.341057 
	C382.140839,100.263092 380.421997,98.185127 378.703186,96.107162 
	C378.415405,96.291595 378.127655,96.476028 377.839874,96.660454 
	C379.524933,99.475365 381.210022,102.290268 382.993774,105.601921 
	C383.050964,105.760765 383.108154,105.919601 383.146362,106.573082 
	C383.336975,106.867531 383.604248,107.049179 383.977661,107.783493 
	C384.313538,108.534416 384.649384,109.285339 385.004761,110.000259 
	C385.004761,110.000259 384.964050,110.004211 385.009094,110.636650 
	C385.334290,111.124084 385.659515,111.611519 386.040497,112.541985 
	C386.040497,112.541985 386.183899,112.964859 386.110992,113.504921 
	C386.397125,113.712196 386.683228,113.919472 387.038086,114.881348 
	C393.205658,131.358368 397.179840,148.217133 398.357544,165.907639 
	C399.232086,179.044342 398.832764,191.858856 395.192596,204.447891 
	C386.874298,233.215820 371.064606,256.915344 347.310150,275.407867 
	C323.710205,293.780182 296.855927,303.017487 267.289246,303.750549 
	C256.424774,304.019897 245.321274,302.124451 234.620270,299.841156 
	C216.519058,295.978882 200.690079,286.878235 185.816681,275.356445 
	C183.382355,273.304993 180.948013,271.253510 178.513672,269.202057 
	C178.272675,269.404968 178.031693,269.607880 177.790695,269.810822 
	C179.860321,272.563629 181.929947,275.316437 184.207581,278.637695 
	C185.095795,279.439728 185.984024,280.241730 186.994858,281.641724 
	C187.337967,282.091736 187.681076,282.541718 188.169144,283.458282 
	C188.352127,283.753998 188.614532,283.933655 189.094055,284.514404 
	C189.388031,284.697632 189.682007,284.880829 189.997696,285.004395 
	C189.997696,285.004395 189.937225,285.023712 190.083069,285.538055 
	C190.379333,285.716156 190.675583,285.894287 190.993256,286.007172 
	C190.993256,286.007172 190.928192,286.028961 191.083145,286.540558 
	C191.380417,286.716400 191.677673,286.892242 191.994705,287.004944 
M510.387970,120.494652 
	C508.923035,127.191216 507.502808,133.897919 505.985321,140.582535 
	C500.019104,166.863892 494.003601,193.134064 488.044556,219.417023 
	C485.023102,232.743393 482.082977,246.088196 479.065460,259.606720 
	C481.891632,260.037231 484.319000,260.703369 486.752808,260.728027 
	C499.417297,260.856384 512.083618,260.791687 524.748779,260.869019 
	C527.199951,260.884003 528.496826,260.442291 529.113220,257.516754 
	C532.214417,242.797791 535.942627,228.207642 538.868713,213.456818 
	C539.913330,208.190552 541.931702,206.800827 547.238708,206.835922 
	C564.013367,206.946854 580.852478,207.090668 597.552307,205.772964 
	C611.963379,204.635880 624.401611,198.145477 634.397583,187.220825 
	C644.103455,176.613190 649.184509,163.950745 650.800903,150.050781 
	C652.519531,135.272034 649.571228,122.212074 630.210876,116.870979 
	C622.392395,114.714027 614.072632,114.373573 605.062317,113.018105 
	C575.534119,113.011581 546.005920,112.990669 516.477783,113.042061 
	C515.038940,113.044563 513.601074,113.681114 512.015686,114.663506 
	C512.000732,115.101730 511.985840,115.539963 511.342346,116.362038 
	C511.231903,117.575836 511.121460,118.789635 510.387970,120.494652 
M1203.006836,180.798813 
	C1201.018799,189.089706 1199.030884,197.380600 1196.817627,206.610809 
	C1210.049316,206.610809 1222.510498,206.610809 1235.091187,206.610809 
	C1233.602905,213.125046 1232.504272,218.884476 1230.875977,224.489960 
	C1230.378296,226.202988 1228.687134,228.359222 1227.096680,228.841171 
	C1213.079712,233.088562 1198.741333,234.686035 1184.253784,231.916992 
	C1171.280273,229.437332 1161.531860,222.633347 1159.950439,208.624176 
	C1159.143311,201.474106 1159.555054,193.832428 1161.185547,186.824692 
	C1167.110718,161.357925 1187.347168,139.296204 1217.934692,140.964706 
	C1227.485596,141.485687 1235.236450,144.530457 1239.046509,154.611969 
	C1239.359375,155.094803 1239.672241,155.577652 1240.011353,156.546875 
	C1240.011353,156.546875 1240.160034,157.010788 1240.010010,157.896729 
	C1240.010010,159.164215 1240.010010,160.431717 1240.010010,161.694626 
	C1257.453735,161.694626 1274.479004,161.694626 1292.429321,161.694626 
	C1291.940430,155.213867 1291.478027,149.084320 1291.003540,142.160385 
	C1290.124634,135.037170 1286.116943,129.643280 1280.948853,125.175682 
	C1268.554932,114.461647 1253.159180,112.060326 1237.692383,111.173248 
	C1222.001099,110.273308 1206.244263,110.688469 1190.706665,113.975487 
	C1170.465088,118.257652 1151.618408,125.664673 1136.573486,140.233475 
	C1115.411255,160.725922 1105.484985,185.955307 1106.987671,215.533447 
	C1107.851929,232.546402 1116.424561,244.535019 1131.119263,252.381729 
	C1145.521240,260.072235 1161.329346,262.583374 1177.306396,262.816467 
	C1192.183105,263.033478 1207.152100,262.344299 1221.952881,260.817535 
	C1236.763184,259.289795 1251.422363,256.272461 1266.130493,253.804657 
	C1268.780151,253.360107 1270.408203,251.927963 1271.075439,248.852066 
	C1275.845093,226.864212 1280.860962,204.929749 1285.983521,182.179855 
	C1286.235718,180.857513 1286.487793,179.535172 1286.780884,177.998093 
	C1283.223999,177.998093 1280.067505,177.998062 1276.911133,177.998093 
	C1253.781006,177.998306 1230.650757,177.962097 1207.521362,178.085297 
	C1206.067505,178.093048 1204.620361,179.345703 1203.006836,180.798813 
M936.313171,114.418343 
	C932.879517,129.726990 929.475098,145.042267 926.005676,160.342819 
	C920.045410,186.627808 914.027100,212.899628 908.072632,239.185928 
	C906.497803,246.138168 905.067200,253.123077 903.409302,260.842957 
	C905.800476,260.842957 907.575500,260.842957 909.350525,260.842957 
	C934.683472,260.842804 960.021362,261.140869 985.347168,260.714508 
	C997.687500,260.506744 1010.189026,259.967407 1022.294495,257.785431 
	C1046.999146,253.332504 1067.961914,241.943146 1081.457886,219.870285 
	C1092.775879,201.359375 1098.614014,181.324356 1096.052002,159.294540 
	C1094.390503,145.007645 1087.923096,133.904755 1075.833374,125.988914 
	C1060.328979,115.837448 1042.793335,114.034203 1024.062744,113.020882 
	C996.517883,113.013786 968.973022,112.991257 941.428223,113.041946 
	C939.940552,113.044678 938.454041,113.661171 936.313171,114.418343 
M740.994751,253.619995 
	C741.444092,255.979385 741.893372,258.338776 742.371216,260.847961 
	C754.179321,260.847961 765.663879,260.956635 777.141479,260.722137 
	C778.727417,260.689728 780.865112,259.338745 781.759460,257.958191 
	C799.929016,229.909470 817.941528,201.759109 836.015381,173.648346 
	C842.388550,163.736023 848.841064,153.874725 855.257324,143.990128 
	C855.476318,144.093948 855.695374,144.197754 855.914368,144.301575 
	C847.169006,182.982483 838.423645,221.663376 829.599792,260.691467 
	C845.874146,260.691467 861.166870,260.691467 876.925537,260.691467 
	C888.032959,211.590851 899.136169,162.508774 910.336548,112.997337 
	C885.196411,112.997337 860.887268,112.961899 836.579102,113.100098 
	C835.340515,113.107132 833.666748,114.323654 832.942139,115.455109 
	C819.257324,136.825104 805.673096,158.259613 792.095581,179.698166 
	C786.984924,187.767624 781.944275,195.881409 776.239929,204.983063 
	C776.086609,202.940262 776.098816,202.293594 775.982666,201.670883 
	C770.641663,173.043427 765.325806,144.411072 759.804626,115.818352 
	C759.585449,114.683510 757.404846,113.122833 756.129944,113.115128 
	C729.981567,112.957047 703.831909,112.996323 677.181152,112.996323 
	C666.048401,162.149017 654.929077,211.242371 643.695251,260.841278 
	C659.168640,260.841278 673.974976,260.913483 688.776855,260.693542 
	C689.868042,260.677277 691.599304,258.710907 691.904236,257.390503 
	C699.364075,225.083267 706.667664,192.739944 714.007874,160.405045 
	C715.251038,154.928574 716.534058,149.461121 717.798645,143.989502 
	C718.931702,145.601669 719.067078,147.046341 719.355469,148.459763 
	C724.225830,172.333923 729.088928,196.209595 734.011963,220.072906 
	C736.262085,230.979889 738.638306,241.860855 740.994751,253.619995 
M218.494629,132.940704 
	C208.868927,137.033096 200.420212,142.630661 193.629456,150.805420 
	C180.153229,167.028198 174.879501,185.661865 179.366684,206.005661 
	C187.365494,242.270615 220.617004,262.917175 255.897751,255.872375 
	C290.905914,248.882004 313.414337,214.469406 305.906372,179.890793 
	C300.750549,156.145370 286.586487,139.934845 263.416656,131.742737 
	C248.490555,126.465340 233.809509,127.128258 218.494629,132.940704 
z"/>
<path fill="#0379C0" opacity="1.000000" stroke="none" 
	d="
M188.956390,283.997284 
	C188.614532,283.933655 188.352127,283.753998 188.075790,282.917236 
	C187.612366,281.932037 187.242310,281.487915 186.872238,281.043762 
	C185.984024,280.241730 185.095795,279.439728 184.140961,278.038452 
	C184.664551,276.972198 185.254745,276.505219 185.844940,276.038239 
	C200.690079,286.878235 216.519058,295.978882 234.620270,299.841156 
	C245.321274,302.124451 256.424774,304.019897 267.289246,303.750549 
	C296.855927,303.017487 323.710205,293.780182 347.310150,275.407867 
	C371.064606,256.915344 386.874298,233.215820 395.192596,204.447891 
	C398.832764,191.858856 399.232086,179.044342 398.357544,165.907639 
	C397.179840,148.217133 393.205658,131.358368 386.945251,114.267670 
	C386.706268,113.349876 386.483429,113.120171 386.183899,112.964859 
	C386.183899,112.964859 386.040497,112.541985 386.007111,112.005661 
	C385.637146,110.980965 385.300598,110.492592 384.964050,110.004211 
	C384.964050,110.004211 385.004761,110.000259 385.009399,109.672096 
	C385.620911,108.570290 386.227844,107.796646 386.834778,107.023010 
	C403.331940,127.004112 412.802185,150.137222 416.894775,175.498993 
	C418.465240,185.231277 419.893707,195.174393 419.646057,204.977478 
	C418.849121,236.522720 411.109344,266.345184 393.423767,292.797577 
	C385.587646,304.518005 376.979553,316.033997 367.061951,325.989166 
	C343.109894,350.031952 313.750732,364.982758 280.575165,371.639893 
	C268.205933,374.121979 255.268082,375.111816 242.652664,374.724701 
	C221.424530,374.073273 200.946808,369.266083 181.429688,360.255890 
	C164.834961,352.594849 150.363174,342.134460 136.740891,330.190033 
	C129.070709,323.464569 120.518532,317.662262 113.351212,310.461212 
	C89.819260,286.818542 75.133278,258.185333 68.222092,225.684708 
	C64.911232,210.115005 63.845459,194.145081 65.197884,178.295914 
	C68.442436,140.272446 81.529411,106.032570 106.058197,76.428810 
	C127.376480,50.699787 153.632507,31.978292 185.248123,21.210815 
	C198.874649,16.569965 212.990540,13.862839 227.517441,12.883410 
	C259.407745,10.733311 289.312347,17.175079 317.346405,32.247807 
	C324.226959,35.947193 330.500305,40.775928 337.006470,46.009186 
	C260.008911,17.544245 194.335281,34.823078 138.586273,93.467911 
	C187.783829,67.054131 236.182022,65.372551 283.683960,97.017540 
	C283.586731,97.601448 283.489502,98.185349 283.392273,98.769249 
	C280.793213,98.131149 278.187439,97.519211 275.596405,96.850014 
	C268.084351,94.909813 260.669952,92.365005 253.043060,91.161484 
	C245.891663,90.032974 238.518921,90.053490 231.241653,90.022377 
	C206.644211,89.917191 184.098434,97.029907 163.375488,110.061424 
	C130.650833,130.640167 109.673676,159.932739 100.406502,197.289276 
	C93.719215,224.246140 95.189453,250.912735 106.851494,276.513367 
	C110.643257,284.837097 114.901382,292.949493 118.993332,301.135010 
	C123.978165,311.106628 132.625717,317.372650 141.759308,322.945129 
	C159.097244,333.523163 177.709595,341.167755 197.712479,344.812897 
	C214.048386,347.789825 230.556808,347.933868 247.115128,346.089172 
	C271.983307,343.318665 294.732971,334.708649 316.067444,321.956421 
	C316.302490,321.815948 316.410339,321.462677 316.649811,321.099060 
	C310.109070,322.082855 303.657043,323.015839 297.217743,324.029633 
	C283.649017,326.165833 270.105713,325.421234 256.764191,322.748932 
	C237.403687,318.871094 219.962677,310.479553 204.246521,298.536682 
	C202.930939,297.536957 201.828323,296.256958 200.200577,294.752747 
	C199.561569,294.165649 199.298874,294.028442 198.986328,293.986725 
	C198.647263,293.942352 198.379379,293.780304 197.988297,293.037994 
	C197.505997,292.392670 197.218079,292.209961 196.930145,292.027252 
	C196.930145,292.027252 196.994186,292.006439 196.889648,291.795166 
	C196.500122,291.398254 196.215149,291.212555 195.930161,291.026886 
	C195.930161,291.026886 195.994247,291.006409 195.889893,290.795197 
	C195.500900,290.397980 195.216263,290.212006 194.931625,290.026001 
	C194.931625,290.026001 194.994919,290.005798 194.890991,289.794403 
	C194.503250,289.396667 194.219421,289.210358 193.935577,289.024048 
	C193.935577,289.024048 193.996490,289.004150 193.892441,288.792084 
	C193.504501,288.394501 193.220627,288.208954 192.936737,288.023438 
	C192.936737,288.023438 192.996964,288.003601 192.892181,287.791260 
	C192.502335,287.394775 192.217239,287.210602 191.932159,287.026428 
	C191.932159,287.026428 191.994705,287.004944 191.889740,286.793640 
	C191.499252,286.397858 191.213730,286.213409 190.928192,286.028961 
	C190.928192,286.028961 190.993256,286.007172 190.889923,285.796387 
	C190.503479,285.398285 190.220352,285.210999 189.937225,285.023712 
	C189.937225,285.023712 189.997696,285.004395 189.896042,284.790527 
	C189.515060,284.383545 189.235718,284.190430 188.956390,283.997284 
M137.709610,94.074539 
	C137.596451,94.545219 137.483307,95.015892 137.370148,95.486572 
	C137.699554,95.138802 138.028961,94.791031 137.709610,94.074539 
z"/>
<path fill="#022F62" opacity="1.000000" stroke="none" 
	d="
M740.976013,253.186813 
	C738.638306,241.860855 736.262085,230.979889 734.011963,220.072906 
	C729.088928,196.209595 724.225830,172.333923 719.355469,148.459763 
	C719.067078,147.046341 718.931702,145.601669 717.798645,143.989502 
	C716.534058,149.461121 715.251038,154.928574 714.007874,160.405045 
	C706.667664,192.739944 699.364075,225.083267 691.904236,257.390503 
	C691.599304,258.710907 689.868042,260.677277 688.776855,260.693542 
	C673.974976,260.913483 659.168640,260.841278 643.695251,260.841278 
	C654.929077,211.242371 666.048401,162.149017 677.181152,112.996323 
	C703.831909,112.996323 729.981567,112.957047 756.129944,113.115128 
	C757.404846,113.122833 759.585449,114.683510 759.804626,115.818352 
	C765.325806,144.411072 770.641663,173.043427 775.982666,201.670883 
	C776.098816,202.293594 776.086609,202.940262 776.239929,204.983063 
	C781.944275,195.881409 786.984924,187.767624 792.095581,179.698166 
	C805.673096,158.259613 819.257324,136.825104 832.942139,115.455109 
	C833.666748,114.323654 835.340515,113.107132 836.579102,113.100098 
	C860.887268,112.961899 885.196411,112.997337 910.336548,112.997337 
	C899.136169,162.508774 888.032959,211.590851 876.925537,260.691467 
	C861.166870,260.691467 845.874146,260.691467 829.599792,260.691467 
	C838.423645,221.663376 847.169006,182.982483 855.914368,144.301575 
	C855.695374,144.197754 855.476318,144.093948 855.257324,143.990128 
	C848.841064,153.874725 842.388550,163.736023 836.015381,173.648346 
	C817.941528,201.759109 799.929016,229.909470 781.759460,257.958191 
	C780.865112,259.338745 778.727417,260.689728 777.141479,260.722137 
	C765.663879,260.956635 754.179321,260.847961 742.371216,260.847961 
	C741.893372,258.338776 741.444092,255.979385 740.976013,253.186813 
z"/>
<path fill="#022F62" opacity="1.000000" stroke="none" 
	d="
M1024.978394,113.223625 
	C1042.793335,114.034203 1060.328979,115.837448 1075.833374,125.988914 
	C1087.923096,133.904755 1094.390503,145.007645 1096.052002,159.294540 
	C1098.614014,181.324356 1092.775879,201.359375 1081.457886,219.870285 
	C1067.961914,241.943146 1046.999146,253.332504 1022.294495,257.785431 
	C1010.189026,259.967407 997.687500,260.506744 985.347168,260.714508 
	C960.021362,261.140869 934.683472,260.842804 909.350525,260.842957 
	C907.575500,260.842957 905.800476,260.842957 903.409302,260.842957 
	C905.067200,253.123077 906.497803,246.138168 908.072632,239.185928 
	C914.027100,212.899628 920.045410,186.627808 926.005676,160.342819 
	C929.475098,145.042267 932.879517,129.726990 937.110962,114.208221 
	C965.170166,113.998650 992.431519,114.013580 1019.692871,113.966484 
	C1021.455139,113.963440 1023.216553,113.482346 1024.978394,113.223625 
M1021.902527,147.276016 
	C1007.724304,146.590866 993.546021,145.905701 979.662109,145.234756 
	C973.214355,173.768295 967.020691,201.177368 960.734802,228.994354 
	C969.599121,228.994354 977.740051,229.105103 985.875916,228.949173 
	C990.154175,228.867172 994.467163,228.595016 998.688477,227.927795 
	C1010.141357,226.117554 1021.008606,223.075455 1029.587280,214.360733 
	C1038.691528,205.112061 1042.183105,193.706985 1044.248413,181.343140 
	C1047.113403,164.193222 1039.536743,152.063400 1021.902527,147.276016 
z"/>
<path fill="#022E62" opacity="1.000000" stroke="none" 
	d="
M1240.160034,157.010788 
	C1240.160034,157.010788 1240.011353,156.546875 1239.991211,156.011536 
	C1239.703735,154.985275 1239.436279,154.494354 1239.168823,154.003448 
	C1235.236450,144.530457 1227.485596,141.485687 1217.934692,140.964706 
	C1187.347168,139.296204 1167.110718,161.357925 1161.185547,186.824692 
	C1159.555054,193.832428 1159.143311,201.474106 1159.950439,208.624176 
	C1161.531860,222.633347 1171.280273,229.437332 1184.253784,231.916992 
	C1198.741333,234.686035 1213.079712,233.088562 1227.096680,228.841171 
	C1228.687134,228.359222 1230.378296,226.202988 1230.875977,224.489960 
	C1232.504272,218.884476 1233.602905,213.125046 1235.091187,206.610809 
	C1222.510498,206.610809 1210.049316,206.610809 1196.817627,206.610809 
	C1199.030884,197.380600 1201.018799,189.089706 1203.491455,180.340866 
	C1205.761963,179.589645 1207.547241,179.045303 1209.333984,179.041061 
	C1232.994995,178.984848 1256.656982,179.100845 1280.316284,178.896973 
	C1283.698120,178.867828 1285.049683,180.166565 1285.798706,182.978333 
	C1280.860962,204.929749 1275.845093,226.864212 1271.075439,248.852066 
	C1270.408203,251.927963 1268.780151,253.360107 1266.130493,253.804657 
	C1251.422363,256.272461 1236.763184,259.289795 1221.952881,260.817535 
	C1207.152100,262.344299 1192.183105,263.033478 1177.306396,262.816467 
	C1161.329346,262.583374 1145.521240,260.072235 1131.119263,252.381729 
	C1116.424561,244.535019 1107.851929,232.546402 1106.987671,215.533447 
	C1105.484985,185.955307 1115.411255,160.725922 1136.573486,140.233475 
	C1151.618408,125.664673 1170.465088,118.257652 1190.706665,113.975487 
	C1206.244263,110.688469 1222.001099,110.273308 1237.692383,111.173248 
	C1253.159180,112.060326 1268.554932,114.461647 1280.948853,125.175682 
	C1286.116943,129.643280 1290.124634,135.037170 1291.004395,143.028717 
	C1291.004761,147.729462 1290.745605,151.584076 1291.072266,155.388351 
	C1291.436523,159.628632 1290.257690,161.225662 1285.638550,161.112076 
	C1272.483032,160.788635 1259.311157,160.836548 1246.153320,161.108139 
	C1242.723267,161.178940 1240.980347,160.107773 1240.160034,157.010788 
z"/>
<path fill="#022E62" opacity="1.000000" stroke="none" 
	d="
M605.981018,113.206451 
	C614.072632,114.373573 622.392395,114.714027 630.210876,116.870979 
	C649.571228,122.212074 652.519531,135.272034 650.800903,150.050781 
	C649.184509,163.950745 644.103455,176.613190 634.397583,187.220825 
	C624.401611,198.145477 611.963379,204.635880 597.552307,205.772964 
	C580.852478,207.090668 564.013367,206.946854 547.238708,206.835922 
	C541.931702,206.800827 539.913330,208.190552 538.868713,213.456818 
	C535.942627,228.207642 532.214417,242.797791 529.113220,257.516754 
	C528.496826,260.442291 527.199951,260.884003 524.748779,260.869019 
	C512.083618,260.791687 499.417297,260.856384 486.752808,260.728027 
	C484.319000,260.703369 481.891632,260.037231 479.065460,259.606720 
	C482.082977,246.088196 485.023102,232.743393 488.044556,219.417023 
	C494.003601,193.134064 500.019104,166.863892 505.985321,140.582535 
	C507.502808,133.897919 508.923035,127.191216 510.993958,120.098816 
	C511.723602,118.461380 511.847260,117.219780 511.970886,115.978188 
	C511.985840,115.539963 512.000732,115.101730 512.547363,114.335915 
	C542.123962,114.005447 571.168823,114.017593 600.213684,113.965660 
	C602.136597,113.962219 604.058594,113.470863 605.981018,113.206451 
M587.333191,143.311630 
	C580.927307,143.206543 574.520203,142.978119 568.115967,143.041214 
	C564.075134,143.081024 560.038696,143.556580 555.296509,144.165558 
	C552.753601,154.244186 550.210693,164.322815 547.774048,173.980453 
	C560.357422,173.980453 572.581665,174.559235 584.717224,173.771713 
	C592.472473,173.268402 598.428589,165.322464 599.039612,157.232147 
	C599.624084,149.493835 598.179810,147.691772 588.439697,144.006210 
	C588.284302,143.947388 588.128906,143.888458 587.333191,143.311630 
z"/>
<path fill="#0479C0" opacity="1.000000" stroke="none" 
	d="
M218.814606,132.711884 
	C233.809509,127.128258 248.490555,126.465340 263.416656,131.742737 
	C286.586487,139.934845 300.750549,156.145370 305.906372,179.890793 
	C313.414337,214.469406 290.905914,248.882004 255.897751,255.872375 
	C220.617004,262.917175 187.365494,242.270615 179.366684,206.005661 
	C174.879501,185.661865 180.153229,167.028198 193.629456,150.805420 
	C200.420212,142.630661 208.868927,137.033096 218.814606,132.711884 
M248.355301,150.986435 
	C245.261765,150.756668 241.855927,149.566422 239.125763,150.454178 
	C222.338348,155.912918 207.988403,175.238602 223.216888,195.670334 
	C226.504196,200.080841 230.422180,204.021286 234.382111,208.559219 
	C217.936279,212.098694 206.181473,206.600769 198.101852,191.835388 
	C198.101852,195.597305 197.611618,198.523895 198.178909,201.228699 
	C203.011688,224.270950 222.617035,239.913010 246.654297,237.149948 
	C273.368774,234.079132 291.592072,206.530136 283.027252,181.015839 
	C277.544312,164.682327 266.134277,154.644196 248.355301,150.986435 
z"/>
<path fill="#0B2C54" opacity="1.000000" stroke="none" 
	d="
M605.521667,113.112274 
	C604.058594,113.470863 602.136597,113.962219 600.213684,113.965660 
	C571.168823,114.017593 542.123962,114.005447 512.620911,114.015366 
	C513.601074,113.681114 515.038940,113.044563 516.477783,113.042061 
	C546.005920,112.990669 575.534119,113.011581 605.521667,113.112274 
z"/>
<path fill="#102B4D" opacity="1.000000" stroke="none" 
	d="
M1285.891113,182.579102 
	C1285.049683,180.166565 1283.698120,178.867828 1280.316284,178.896973 
	C1256.656982,179.100845 1232.994995,178.984848 1209.333984,179.041061 
	C1207.547241,179.045303 1205.761963,179.589645 1203.572998,179.951050 
	C1204.620361,179.345703 1206.067505,178.093048 1207.521362,178.085297 
	C1230.650757,177.962097 1253.781006,177.998306 1276.911133,177.998093 
	C1280.067505,177.998062 1283.223999,177.998093 1286.780884,177.998093 
	C1286.487793,179.535172 1286.235718,180.857513 1285.891113,182.579102 
z"/>
<path fill="#0A2B53" opacity="1.000000" stroke="none" 
	d="
M1024.520508,113.122253 
	C1023.216553,113.482346 1021.455139,113.963440 1019.692871,113.966484 
	C992.431519,114.013580 965.170166,113.998650 937.437866,113.995026 
	C938.454041,113.661171 939.940552,113.044678 941.428223,113.041946 
	C968.973022,112.991257 996.517883,113.013786 1024.520508,113.122253 
z"/>
<path fill="#0D2E54" opacity="1.000000" stroke="none" 
	d="
M1240.084961,157.453766 
	C1240.980347,160.107773 1242.723267,161.178940 1246.153320,161.108139 
	C1259.311157,160.836548 1272.483032,160.788635 1285.638550,161.112076 
	C1290.257690,161.225662 1291.436523,159.628632 1291.072266,155.388351 
	C1290.745605,151.584076 1291.004761,147.729462 1291.010498,143.425903 
	C1291.478027,149.084320 1291.940430,155.213867 1292.429321,161.694626 
	C1274.479004,161.694626 1257.453735,161.694626 1240.010010,161.694626 
	C1240.010010,160.431717 1240.010010,159.164215 1240.084961,157.453766 
z"/>
<path fill="#2478AB" opacity="1.000000" stroke="none" 
	d="
M185.830811,275.697327 
	C185.254745,276.505219 184.664551,276.972198 184.036957,277.754211 
	C181.929947,275.316437 179.860321,272.563629 177.790695,269.810822 
	C178.031693,269.607880 178.272675,269.404968 178.513672,269.202057 
	C180.948013,271.253510 183.382355,273.304993 185.830811,275.697327 
z"/>
<path fill="#2278AC" opacity="1.000000" stroke="none" 
	d="
M382.895081,105.105179 
	C381.210022,102.290268 379.524933,99.475365 377.839874,96.660454 
	C378.127655,96.476028 378.415405,96.291595 378.703186,96.107162 
	C380.421997,98.185127 382.140839,100.263092 383.740173,102.798080 
	C383.461609,103.789162 383.302521,104.323219 383.081299,104.919243 
	C383.019196,104.981201 382.895081,105.105179 382.895081,105.105179 
z"/>
<path fill="#2278AC" opacity="1.000000" stroke="none" 
	d="
M386.900330,106.696259 
	C386.227844,107.796646 385.620911,108.570290 384.999634,109.690094 
	C384.649384,109.285339 384.313538,108.534416 383.890320,107.237389 
	C383.669739,106.404488 383.457184,106.200203 383.165314,106.078430 
	C383.108154,105.919601 383.050964,105.760765 382.944427,105.353546 
	C382.895081,105.105179 383.019196,104.981201 383.369995,104.940338 
	C384.153625,104.560989 384.586487,104.222504 385.019348,103.884018 
	C385.668213,104.712517 386.317047,105.541023 386.900330,106.696259 
z"/>
<path fill="#0B2C54" opacity="1.000000" stroke="none" 
	d="
M511.656616,116.170113 
	C511.847260,117.219780 511.723602,118.461380 511.305481,119.853203 
	C511.121460,118.789635 511.231903,117.575836 511.656616,116.170113 
z"/>
<path fill="#0379C0" opacity="1.000000" stroke="none" 
	d="
M384.957458,103.662041 
	C384.586487,104.222504 384.153625,104.560989 383.432068,104.878380 
	C383.302521,104.323219 383.461609,103.789162 383.877686,103.112411 
	C384.465576,103.001434 384.719238,103.158218 384.957458,103.662041 
z"/>
<path fill="#0D2E54" opacity="1.000000" stroke="none" 
	d="
M1239.107666,154.307709 
	C1239.436279,154.494354 1239.703735,154.985275 1239.978149,155.768341 
	C1239.672241,155.577652 1239.359375,155.094803 1239.107666,154.307709 
z"/>
<path fill="#227AB0" opacity="1.000000" stroke="none" 
	d="
M186.933548,281.342743 
	C187.242310,281.487915 187.612366,281.932037 188.003311,282.683960 
	C187.681076,282.541718 187.337967,282.091736 186.933548,281.342743 
z"/>
<path fill="#2278AC" opacity="1.000000" stroke="none" 
	d="
M384.986572,110.320435 
	C385.300598,110.492592 385.637146,110.980965 385.979248,111.784149 
	C385.659515,111.611519 385.334290,111.124084 384.986572,110.320435 
z"/>
<path fill="#227AB0" opacity="1.000000" stroke="none" 
	d="
M190.010147,285.280884 
	C190.220352,285.210999 190.503479,285.398285 190.879227,285.828979 
	C190.675583,285.894287 190.379333,285.716156 190.010147,285.280884 
z"/>
<path fill="#227AB0" opacity="1.000000" stroke="none" 
	d="
M199.061661,294.229858 
	C199.298874,294.028442 199.561569,294.165649 199.897644,294.588013 
	C199.726273,294.676147 199.431641,294.574554 199.061661,294.229858 
z"/>
<path fill="#227AB0" opacity="1.000000" stroke="none" 
	d="
M197.010559,292.284790 
	C197.218079,292.209961 197.505997,292.392670 197.896729,292.815674 
	C197.696686,292.884766 197.393829,292.713562 197.010559,292.284790 
z"/>
<path fill="#227AB0" opacity="1.000000" stroke="none" 
	d="
M196.008301,291.281921 
	C196.215149,291.212555 196.500122,291.398254 196.879425,291.827271 
	C196.677979,291.892700 196.382202,291.714813 196.008301,291.281921 
z"/>
<path fill="#227AB0" opacity="1.000000" stroke="none" 
	d="
M195.009384,290.281067 
	C195.216263,290.212006 195.500900,290.397980 195.879730,290.827271 
	C195.678329,290.892395 195.382736,290.714294 195.009384,290.281067 
z"/>
<path fill="#227AB0" opacity="1.000000" stroke="none" 
	d="
M194.012329,289.279175 
	C194.219421,289.210358 194.503250,289.396667 194.880859,289.826050 
	C194.679443,289.890808 194.384262,289.712555 194.012329,289.279175 
z"/>
<path fill="#227AB0" opacity="1.000000" stroke="none" 
	d="
M193.013687,288.278351 
	C193.220627,288.208954 193.504501,288.394501 193.882523,288.822571 
	C193.681320,288.887817 193.385986,288.710541 193.013687,288.278351 
z"/>
<path fill="#227AB0" opacity="1.000000" stroke="none" 
	d="
M192.011597,287.280334 
	C192.217239,287.210602 192.502335,287.394775 192.882370,287.821411 
	C192.681900,287.887329 192.386475,287.710785 192.011597,287.280334 
z"/>
<path fill="#227AB0" opacity="1.000000" stroke="none" 
	d="
M191.005676,286.284760 
	C191.213730,286.213409 191.499252,286.397858 191.879868,286.825195 
	C191.677673,286.892242 191.380417,286.716400 191.005676,286.284760 
z"/>
<path fill="#227AB0" opacity="1.000000" stroke="none" 
	d="
M189.025223,284.255859 
	C189.235718,284.190430 189.515060,284.383545 189.885193,284.820374 
	C189.682007,284.880829 189.388031,284.697632 189.025223,284.255859 
z"/>
<path fill="#2278AC" opacity="1.000000" stroke="none" 
	d="
M386.147461,113.234894 
	C386.483429,113.120171 386.706268,113.349876 386.910889,113.890366 
	C386.683228,113.919472 386.397125,113.712196 386.147461,113.234894 
z"/>
<path fill="#0379C0" opacity="1.000000" stroke="none" 
	d="
M383.155823,106.325760 
	C383.457184,106.200203 383.669739,106.404488 383.875610,106.904648 
	C383.604248,107.049179 383.336975,106.867531 383.155823,106.325760 
z"/>
<path fill="#FFFFFF" opacity="1.000000" stroke="none" 
	d="
M138.033997,94.258896 
	C138.028961,94.791031 137.699554,95.138802 137.370148,95.486572 
	C137.483307,95.015892 137.596451,94.545219 138.033997,94.258896 
z"/>
<path fill="#FFFFFF" opacity="1.000000" stroke="none" 
	d="
M1022.234314,147.531616 
	C1039.536743,152.063400 1047.113403,164.193222 1044.248413,181.343140 
	C1042.183105,193.706985 1038.691528,205.112061 1029.587280,214.360733 
	C1021.008606,223.075455 1010.141357,226.117554 998.688477,227.927795 
	C994.467163,228.595016 990.154175,228.867172 985.875916,228.949173 
	C977.740051,229.105103 969.599121,228.994354 960.734802,228.994354 
	C967.020691,201.177368 973.214355,173.768295 979.662109,145.234756 
	C993.546021,145.905701 1007.724304,146.590866 1022.234314,147.531616 
z"/>
<path fill="#FFFFFF" opacity="1.000000" stroke="none" 
	d="
M587.973511,143.829590 
	C588.128906,143.888458 588.284302,143.947388 588.439697,144.006210 
	C598.179810,147.691772 599.624084,149.493835 599.039612,157.232147 
	C598.428589,165.322464 592.472473,173.268402 584.717224,173.771713 
	C572.581665,174.559235 560.357422,173.980453 547.774048,173.980453 
	C550.210693,164.322815 552.753601,154.244186 556.112793,144.075897 
	C567.277161,143.934006 577.625366,143.881790 587.973511,143.829590 
z"/>
<path fill="#0F2B4D" opacity="1.000000" stroke="none" 
	d="
M587.653320,143.570602 
	C577.625366,143.881790 567.277161,143.934006 556.464600,143.911453 
	C560.038696,143.556580 564.075134,143.081024 568.115967,143.041214 
	C574.520203,142.978119 580.927307,143.206543 587.653320,143.570602 
z"/>
<path fill="#FFFFFF" opacity="1.000000" stroke="none" 
	d="
M248.789215,150.986572 
	C266.134277,154.644196 277.544312,164.682327 283.027252,181.015839 
	C291.592072,206.530136 273.368774,234.079132 246.654297,237.149948 
	C222.617035,239.913010 203.011688,224.270950 198.178909,201.228699 
	C197.611618,198.523895 198.101852,195.597305 198.101852,191.835388 
	C206.181473,206.600769 217.936279,212.098694 234.382111,208.559219 
	C230.422180,204.021286 226.504196,200.080841 223.216888,195.670334 
	C207.988403,175.238602 222.338348,155.912918 239.125763,150.454178 
	C241.855927,149.566422 245.261765,150.756668 248.789215,150.986572 
z"/>
</svg>