<?xml version="1.0" encoding="iso-8859-1"?>
<!-- Uploaded to: SVG Repo, www.svgrepo.com, Generator: SVG Repo Mixer Tools -->
<svg version="1.1" id="Layer_1" xmlns="http://www.w3.org/2000/svg" xmlns:xlink="http://www.w3.org/1999/xlink" 
	 viewBox="0 0 512 512" xml:space="preserve">
<g>
	<path style="fill:#FFD248;" d="M78.367,245.551l1.357,2.821l-52.459,25.597l-1.143-2.296v-52.245
		c0-5.745,4.704-10.449,10.449-10.449h31.347c5.745,0,10.449,4.704,10.449,10.449V245.551z"/>
	<path style="fill:#FFD248;" d="M485.878,219.429v52.245l-1.153,2.296l-52.45-25.597l1.357-2.821v-26.122
		c0-5.745,4.704-10.449,10.449-10.449h31.347C481.173,208.98,485.878,213.684,485.878,219.429z"/>
</g>
<g>
	<path style="fill:#31C0D8;" d="M167.184,188.082v15.673l0.837,1.674l-52.562,25.597l-0.52-1.148v-41.796
		c0-5.745,4.704-10.449,10.449-10.449h31.347C162.48,177.633,167.184,182.337,167.184,188.082z"/>
	<path style="fill:#31C0D8;" d="M344.816,203.755v-15.673c0-5.745,4.704-10.449,10.449-10.449h31.347
		c5.745,0,10.449,4.704,10.449,10.449v41.796l-0.52,1.148l-52.562-25.597L344.816,203.755z"/>
</g>
<g>
	<polygon style="fill:#BCBEC0;" points="203.755,188.082 203.755,256 10.449,355.265 10.449,282.122 27.266,273.969 79.725,248.372 
		115.459,231.026 168.021,205.429 	"/>
	<polygon style="fill:#BCBEC0;" points="501.551,282.122 501.551,355.265 308.245,256 308.245,188.082 343.979,205.429 
		396.541,231.026 432.275,248.372 484.725,273.969 	"/>
</g>
<path style="fill:#D1D3D4;" d="M203.755,376.163V256v-67.918V83.592c0-28.837,23.408-67.918,52.245-67.918
	s52.245,39.081,52.245,67.918v104.49V256v120.163l83.592,47.02v52.245l-88.082-36.255c-8.674,19.122-28.214,57.153-47.755,57.153
	s-39.081-38.031-47.755-57.153l-88.082,36.255v-52.245L203.755,376.163z"/>
<g>
	<path style="fill:#231F20;" d="M506.107,272.719l-9.78-4.74v-48.551c0-11.523-9.375-20.898-20.898-20.898h-31.347
		c-11.523,0-20.898,9.375-20.898,20.898v12.915l-15.673-7.609v-36.653c0-11.523-9.375-20.898-20.898-20.898h-31.347
		c-11.523,0-20.898,9.375-20.898,20.898v1.066l-15.673-7.609V83.592c0-16.557-6.44-35.55-17.225-50.805
		C288.901,15.013,272.754,5.224,256,5.224s-32.901,9.789-45.469,27.562c-10.785,15.256-17.225,34.248-17.225,50.805v97.947
		l-15.673,7.609v-1.066c0-11.523-9.375-20.898-20.898-20.898h-31.347c-11.523,0-20.898,9.375-20.898,20.898v36.654l-15.673,7.609
		v-12.916c0-11.523-9.375-20.898-20.898-20.898H36.571c-11.523,0-20.898,9.375-20.898,20.898v48.549l-9.782,4.743
		C2.288,274.466,0,278.118,0,282.122v73.143c0,3.641,1.895,7.02,5.003,8.918c1.668,1.018,3.555,1.531,5.446,1.531
		c1.634,0,3.272-0.383,4.773-1.154l178.084-91.449v96.94l-78.265,44.025c-3.291,1.85-5.327,5.332-5.327,9.107v52.245
		c0,3.486,1.738,6.742,4.635,8.682c2.894,1.939,6.566,2.307,9.792,0.981l78.892-32.472c17.641,35.948,35.439,54.156,52.967,54.156
		s35.326-18.208,52.967-54.157l78.892,32.472c3.225,1.326,6.897,0.959,9.792-0.981c2.896-1.94,4.634-5.196,4.634-8.682v-52.245
		c0-3.775-2.035-7.257-5.327-9.107l-78.264-44.024v-96.94l178.084,91.448c1.503,0.771,3.139,1.154,4.773,1.154
		c1.891,0,3.778-0.513,5.446-1.531c3.108-1.898,5.003-5.277,5.003-8.918v-73.143C512,278.118,509.712,274.465,506.107,272.719z
		 M475.429,219.429v38.377l-31.347-15.298v-23.079H475.429z M386.612,188.082v26.487l-31.347-15.266v-11.221H386.612z
		 M156.735,188.082v11.221l-31.347,15.266v-26.487H156.735z M67.918,219.429v23.078l-31.347,15.296v-38.374H67.918z M20.898,338.154
		V288.67l10.949-5.309l52.441-25.587l35.746-17.353l52.55-25.592l20.721-10.059v44.85L20.898,338.154z M381.388,429.295v30.533
		l-73.655-30.317c-5.201-2.14-11.169,0.222-13.494,5.346c-11.052,24.366-20.67,37.912-27.79,44.821v-87.841h-20.898v87.841
		c-7.12-6.909-16.738-20.455-27.79-44.821c-1.744-3.844-5.537-6.136-9.52-6.136c-1.327,0-2.674,0.254-3.974,0.789l-73.655,30.318
		v-30.533l62.694-35.265v13.48h20.898v-31.347V83.592c0-12.213,5.131-27.058,13.391-38.741
		c8.416-11.902,18.768-18.729,28.405-18.729c9.636,0,19.989,6.826,28.404,18.729c8.26,11.683,13.391,26.528,13.391,38.741v292.571
		v31.347h20.898v-13.48L381.388,429.295z M491.102,338.154L318.694,249.62v-44.851l20.711,10.054l52.573,25.602l35.716,17.337
		l52.476,25.609l10.934,5.298v49.485H491.102z"/>
	<path style="fill:#231F20;" d="M256,41.796c-24.795,0-31.347,27.34-31.347,41.796h20.898c0-0.062,0.089-6.408,2.076-12.369
		c2.843-8.528,6.578-8.528,8.373-8.528c9.866,0,10.448,20.722,10.449,20.898h20.898C287.347,69.136,280.794,41.796,256,41.796z"/>
	<rect x="245.551" y="109.714" style="fill:#231F20;" width="20.898" height="229.878"/>
</g>
</svg>